<?xml version="1.0" encoding="UTF-8" standalone="no"?>
<svg
   xmlns:dc="http://purl.org/dc/elements/1.1/"
   xmlns:cc="http://creativecommons.org/ns#"
   xmlns:rdf="http://www.w3.org/1999/02/22-rdf-syntax-ns#"
   xmlns:svg="http://www.w3.org/2000/svg"
   xmlns="http://www.w3.org/2000/svg"
   xmlns:sodipodi="http://sodipodi.sourceforge.net/DTD/sodipodi-0.dtd"
   xmlns:inkscape="http://www.inkscape.org/namespaces/inkscape"
   width="810"
   height="1000"
   version="1.1"
   id="svg38"
   sodipodi:docname="POL_Lublin_COA_1.svg"
   inkscape:version="1.0.1 (3bc2e813f5, 2020-09-07)">
  <metadata
     id="metadata42">
    <rdf:RDF>
      <cc:Work
         rdf:about="">
        <dc:format>image/svg+xml</dc:format>
        <dc:type
           rdf:resource="http://purl.org/dc/dcmitype/StillImage" />
        <dc:title />
      </cc:Work>
    </rdf:RDF>
  </metadata>
  <sodipodi:namedview
     pagecolor="#ffffff"
     bordercolor="#666666"
     borderopacity="1"
     objecttolerance="10"
     gridtolerance="10"
     guidetolerance="10"
     inkscape:pageopacity="0"
     inkscape:pageshadow="2"
     inkscape:window-width="1920"
     inkscape:window-height="1001"
     id="namedview40"
     showgrid="false"
     inkscape:zoom="0.52640309"
     inkscape:cx="575.69967"
     inkscape:cy="481.99868"
     inkscape:window-x="-9"
     inkscape:window-y="-9"
     inkscape:window-maximized="1"
     inkscape:current-layer="svg38"
     inkscape:document-rotation="0" />
  <defs
     id="defs8" />
  <g
     id="g1238"
     transform="matrix(3.4506174,0,0,3.460604,-962.82611,-158.5974)">
    <path
       d="M 396.4032,45.8294 H 279.0301 v 222.0495 c 0,28.5024 30.9546,35.7003 62.0406,42.8982 21.8908,5.1052 43.8487,10.2101 54.2859,22.7419 l 1.0466,1.2773 1.0445,-1.2773 c 10.4341,-12.5318 32.3916,-17.6367 54.2828,-22.7419 31.0857,-7.1979 62.0402,-14.3958 62.0402,-42.8982 V 45.8294 Z"
       style="fill:#1b1918;fill-rule:evenodd"
       id="path2-3" />
    <path
       d="m 283.5302,277.5372 c -1.025,-2.8756 -1.6379,-6.0886 -1.7623,-9.705 V 48.5672 h 229.3533 v 219.265 c -0.1177,3.452 -0.6808,6.5371 -1.6246,9.3094 -5.3606,-0.3555 -14.0304,-0.4002 -22.4974,-0.3539 -3.5434,0.0216 -7.1363,0.0616 -10.7527,0.1047 -0.1279,-1.8156 0.1146,-3.0183 0.7357,-4.761 1.6066,-4.5001 2.6578,-9.2212 3.7628,-13.7629 0.7456,-3.0647 1.9782,-5.8056 3.8421,-8.0051 1.6332,-1.9271 2.6315,-3.3507 1.982,-5.9108 -0.3159,-1.2475 -0.7259,-2.4317 -0.9072,-3.6529 -0.3257,-2.2061 -1.1859,-3.2358 -3.3822,-4.1662 -3.0964,-1.3122 -4.9886,-2.1363 -6.2742,-5.3457 -0.8091,-2.0249 -0.8738,-4.5465 0.1229,-6.5034 0.7424,0.4732 1.4884,1.1227 1.8537,1.9185 0.5866,1.2757 -0.3206,1.7894 0.0698,2.035 1.1482,0.7259 2.3823,-0.3669 2.7328,-1.4154 0.6047,-1.8141 0.1247,-3.5168 -0.8406,-5.0699 -0.7789,-1.2526 -1.6112,-2.4635 -1.5331,-4.0865 1.5198,1.1015 3.6196,0.9304 4.5664,-0.6314 0.3622,-0.5996 0.1546,-0.7491 -0.4968,-0.8221 -1.6924,-0.1993 -1.9251,-1.5865 -1.7309,-2.9321 0.52,-3.6278 2.4455,-6.2726 2.0515,-10.6067 2.7959,0.7362 3.3775,3.8805 3.0169,6.3342 -0.5467,3.6863 -2.3341,6.8542 0.0749,10.2677 1.3256,1.8757 3.3519,3.4622 4.3055,5.4855 0.7346,1.5582 0.9469,3.0184 -0.3504,4.2278 -0.5514,0.5132 -1.3009,1.0347 -2.1065,0.9782 -0.5678,-0.0416 -0.744,-0.0333 -0.5996,0.7162 0.4568,2.3835 4.776,2.3187 6.2593,0.99 0.2276,1.5645 0.5882,3.2743 3.2413,3.9535 1.7058,0.4368 4.8187,0.1727 5.6746,-1.6975 0.4567,-1.0054 0.2837,-1.1098 -0.5635,-0.7958 -1.508,0.5646 -3.0714,-0.3242 -3.02,-2.0649 0.0848,-2.9886 1.603,-5.527 0.4635,-8.7612 2.2908,0.319 4.2709,-1.3856 4.7512,-3.432 0.2041,-0.872 0.0597,-1.0348 -0.5749,-0.5514 -3.8557,2.9419 -4.5684,-3.1282 -4.8423,-5.3708 -0.5168,-4.2043 -0.8107,-8.5235 -4.9918,-10.9387 -1.7858,-3.1931 -5.1248,-3.3127 -7.7629,-4.7811 -1.9801,-1.1062 -2.5597,-2.3407 -3.4999,-4.2278 -2.6546,-5.3289 -7.296,-8.5635 -11.2844,-12.7061 -5.6648,-5.8873 -10.004,-12.7199 -13.4557,-20.227 -1.9271,-4.1893 -3.8326,-8.3889 -5.9853,-12.4868 -1.7294,-3.6796 -4.1097,-6.7062 -5.9721,-10.3909 -0.5164,-3.8256 -3.8306,-11.2695 -2.073,-14.4606 2.148,0.8869 5.5733,-0.0682 6.4488,-2.3505 0.8056,-2.1013 0.4932,-2.1861 -0.8708,-1.55 -1.0862,0.5066 -2.6095,0.226 -3.2326,-0.8456 -0.8021,-1.3785 1.0316,-4.324 1.6763,-5.6181 1.2824,-2.575 1.6344,-4.8972 2.1826,-7.7061 2.2379,0.2225 4.2144,-0.786 4.8442,-2.9536 0.4717,-1.6179 0.0216,-1.4221 -1.0547,-0.9936 -2.0833,0.8307 -1.9338,-2.3489 -1.8043,-3.6478 0.6196,-6.1231 2.2061,-13.4556 -1.3091,-18.0205 1.2345,-0.8158 2.3176,-2.0119 3.1432,-3.3841 1.736,1.1745 3.7608,1.9106 5.7943,2.3073 0.2174,0.7676 0.5744,1.5367 1.2623,2.0586 -1.4884,3.6643 0.0299,9.5783 -0.7475,13.0287 -2.4188,3.304 -2.4733,8.897 -2.5483,12.6747 -2.2242,3.2692 -2.8555,7.4436 -2.4984,11.5368 -1.6744,3.4586 -2.1697,8.3194 -0.8504,12.1084 -0.8523,3.4603 -0.3441,7.3757 1.6462,10.0786 0.2491,3.2609 1.7473,6.3342 4.4318,8.3492 1.6964,1.2742 2.4769,0.6675 2.1947,-1.4369 -0.133,-0.9987 -0.5368,-2.0001 -0.6396,-3.0118 -0.6047,-4.0367 1.2639,-8.0188 -0.3288,-11.7262 1.7407,-3.5984 0.6243,-6.2048 0.8503,-9.3644 2.1429,-3.5148 3.2146,-7.497 3.1597,-11.919 2.6895,-3.1577 3.7125,-7.0166 3.5748,-11.2444 1.0665,-1.4554 2.4152,-4.721 2.5334,-7.0833 0.3951,1.7792 1.8141,3.5866 1.8969,5.5149 -1.0034,2.894 -0.4682,10.3909 0.9735,14.7066 -0.8786,4.2591 -0.7408,9.1466 0.5765,13.1283 -1.0748,3.8923 -0.3571,8.2096 1.9769,11.2597 -0.2959,3.3971 0.6361,6.9087 2.7739,9.0352 0.6863,4.1544 2.9038,7.09 6.3723,9.1117 2.7645,1.6096 2.6696,0.3504 1.6163,-1.7376 -2.1974,-4.3573 -1.1462,-10.9442 -3.7043,-13.582 0.7409,-3.6796 0.6863,-8.1832 -0.5215,-11.6435 1.1529,-4.0084 0.932,-8.8142 -0.0565,-12.741 1.7027,-4.7528 1.0713,-10.9874 -0.467,-15.5986 0.3858,-5.4371 -0.4932,-10.6565 -3.5681,-14.8294 0.0698,-3.7726 -3.45,-10.4341 -7.2776,-11.8793 -0.857,-1.6795 -1.7843,-2.9219 -3.6529,-4.3506 -1.1164,-6.007 -7.3608,-12.5005 -13.9791,-10.9854 -3.7043,-2.2509 -11.585,-0.9654 -14.8428,1.2725 -3.7325,0.4949 -6.6061,2.3706 -9.0198,5.2375 -0.9473,-0.2225 -2.3274,-0.1193 -3.2115,0.1911 0.5965,-3.97 3.1099,-5.8955 4.7081,-9.0285 0.9104,-1.7858 -0.8173,-1.8372 -2.0848,-1.4103 -2.7163,0.9155 -2.9003,2.8771 -4.7379,3.4104 -0.4399,-0.9818 -2.6794,0.6428 -3.3422,1.0332 -3.1647,1.8573 -5.9222,5.6448 -6.2161,9.3875 -2.4553,0.4085 -4.0335,1.0415 -5.208,3.7609 -0.5348,1.2459 -1.1376,2.4819 -2.4235,3.1047 -2.2642,1.0964 -4.1363,3.0219 -6.2114,4.4785 -0.9202,0.6432 -1.7074,1.1631 -2.8304,1.3275 -1.437,0.2107 -2.6562,0.4584 -3.5682,0.8139 -1.1246,0.4403 -0.8954,1.2773 -1.4554,1.5979 -0.7059,0.4037 -1.4103,1.716 -0.4634,2.5051 -2.2493,0.8256 -1.6164,2.0499 -2.1677,2.746 -0.6098,0.7692 -0.08,1.9719 0.5215,2.6362 0.7158,0.7907 1.3919,1.7027 2.7724,1.4005 0.2491,0.6032 0.0714,1.3487 0.1381,2.0315 0.1244,1.2392 1.4021,1.977 2.4435,2.3906 -1.1015,2.9834 -5.0499,2.5533 -3.1581,9.4173 -0.239,1.2541 0.0565,2.3474 0.3873,3.4238 0.3022,0.9951 1.0564,2.1111 -0.0832,2.613 -1.0532,0.4599 -0.897,0.9583 0.2692,1.4915 1.4453,0.6612 3.0318,-0.3951 3.6215,-1.7407 0.8735,0.6247 1.3637,1.977 0.5996,2.7441 -0.7942,0.7993 -1.4354,1.1945 0.6114,1.2377 2.2191,0.0447 3.0082,-2.1893 2.6609,-4.6481 -0.2492,-1.7823 -1.6661,-4.2674 -0.0961,-5.706 0.578,-0.5301 1.3357,-0.9421 1.696,-1.6116 -0.003,0.3026 0.2507,0.5251 0.5281,0.5568 0.2975,-0.9272 1.3707,-1.683 2.0402,-2.5832 0.8954,-1.2062 0.5431,-2.6381 0.0616,-3.9386 -0.5219,-1.4122 -1.231,-2.9289 -0.1366,-4.236 0.4356,-0.5199 0.7644,-0.4006 1.326,-0.2927 2.166,0.4238 4.6096,0.6431 6.7458,0.206 1.1097,-0.2256 1.3672,-0.1942 2.2544,0.208 1.4935,0.6761 3.1114,1.1591 4.5896,1.4566 -0.0412,1.4817 -0.4234,2.6181 -1.5547,3.5815 -0.5749,0.4917 -2.1179,1.2227 -1.9319,-0.2041 0.0781,-0.6066 0.033,-0.8107 -0.8075,-0.1813 -0.7409,0.5565 -1.2408,1.5285 -1.3024,2.4487 -0.1044,1.5931 1.2047,2.2308 2.2163,2.7009 -1.0167,0.6329 -2.5915,1.9404 -3.1546,2.9952 -1.5068,2.8308 -5.8441,0.8688 -6.8059,3.844 -0.4136,1.2809 0,1.1412 0.819,0.9088 1.2608,-0.3606 2.0115,0.1645 2.0613,0.7923 -2.7724,1.6179 -5.1099,4.4821 -6.0152,7.3623 -1.8404,1.6482 -4.849,2.3674 -5.5467,5.1366 -0.3637,1.4351 -1.4036,2.9568 -0.7522,3.8488 -0.1582,0.3571 -0.5035,0.9602 -0.6761,1.3141 -1.4041,-2.6495 -3.9288,-4.8941 -6.5187,-6.5767 -2.5816,-1.6779 -5.0251,-3.7541 -7.2944,-6.0266 -0.9716,-0.972 -1.5732,-1.4056 -1.7972,-2.8343 -0.1794,-1.1243 -1.0568,-2.6594 -2.1465,-2.9917 -1.7808,-0.5431 -3.3005,-1.1078 -4.942,-1.9935 -0.3473,-0.1875 -0.7306,-0.3237 -1.1293,-0.4084 3.1027,-3.8456 2.5247,-10.5436 -3.2048,-11.0636 0.2111,-4.0068 -3.3421,-8.0384 -8,-6.6297 -0.9253,-1.6398 -2.2642,-2.8473 -3.8774,-3.7463 -1.2341,-0.689 -1.3322,-1.1246 -1.8772,-2.3356 -1.882,-4.1877 -3.8904,-6.0234 -8.4536,-7.1912 -2.6927,-0.6875 -5.8873,2.0535 -7.6665,1.5834 -1.3255,-1.7062 -0.7358,-9.6815 -3.9519,-12.7117 -0.1228,-1.0665 -0.0581,-2.4168 -0.0616,-3.6493 -0.0114,-3.5321 -2.2226,-4.1862 -5.0499,-3.8209 -1.6579,0.2158 -5.1562,1.0532 -5.0899,3.1628 -4.3404,0.9104 -7.422,1.1827 -11.4304,7.0119 -2.4137,3.5085 -4.6995,9.0752 -0.6514,12.2195 3.4618,2.6896 7.9254,-1.003 8.7248,-4.4071 0.5164,-2.2077 -1.678,-4.402 -2.2944,-2.7974 -1.1875,3.1051 -5.3654,6.0403 -3.9088,0.6894 0.9021,-3.3123 5.341,-7.8905 9.0834,-7.4867 -0.0863,5.3607 -0.0863,10.6114 -0.0596,15.9823 0.0333,6.8389 -0.0448,14.5952 -0.0797,18.6864 -1.2263,2.0119 -2.5651,3.939 -3.0219,6.1765 -0.1742,0.8605 -0.4101,1.2941 -1.4452,0.7424 -2.0782,-1.103 -4.0218,-1.3703 -6.379,-0.9998 -2.5499,0.3987 -4.8839,1.6426 -6.6646,3.7525 -0.8221,-0.7875 0.0298,-2.9505 -1.2192,-4.2725 -1.5053,-1.5947 -3.7742,-1.2824 -5.1398,-2.9834 -0.5384,-0.6695 -0.7773,-0.5168 -1.0897,0.1726 -0.319,0.7028 -0.8919,1.4237 -1.6995,1.5198 -1.5131,-1.2675 -3.6929,-1.0748 -4.796,-2.2442 -0.9167,-0.9716 -1.8671,-0.558 -1.7191,0.7625 0.3457,3.1098 -2.015,4.8058 -2.1265,7.5766 -0.8668,1.9204 0.8241,4.1732 -0.3072,5.8692 -0.4336,0.651 -0.7958,0.8189 -0.01,1.5763 1.1992,1.158 1.6559,2.3356 1.8686,3.5203 0.2425,1.3353 0.8142,2.538 2.5699,3.5348 1.417,0.804 1.0434,1.8305 0.0565,2.786 -1.0466,1.0148 -2.5216,1.5548 -3.5898,2.7143 -1.6912,1.8306 -2.2061,4.384 -2.0052,6.9488 0.2394,3.0697 1.5634,4.6778 1.4622,8.4869 -0.0216,0.8355 0.0961,1.1364 1.0182,0.5749 0.8987,-0.5482 1.749,-1.9354 1.824,0.0114 0.0879,2.2944 1.0496,4.5868 0.8154,6.811 -0.1064,1.0132 0.1032,1.417 1.0767,0.7424 2.329,-1.6096 5.2893,-0.5996 8.1346,-3.3704 0.5765,-0.5615 1.3091,-0.6745 1.6831,0.1676 0.279,0.6298 1.0281,2.5133 1.6194,0.7993 0.4568,-1.3275 1.3209,-1.5516 1.8322,-3.5983 0.2311,-0.932 0.6282,0.0364 1.085,0.4402 0.9417,0.8339 1.3918,0.4003 1.3918,-0.7177 0,-1.4782 0.9669,-3.2609 1.065,-5.0165 0.1228,-2.2045 -0.2441,-4.4687 -1.1262,-6.3692 -0.5764,-1.2407 -1.9436,-3.0117 -2.0582,-4.2144 -0.1145,-1.1611 0.7193,-1.3189 1.6277,-0.6859 1.8973,1.3287 1.9405,3.8456 2.6413,5.912 0.2794,0.8291 0.2445,1.5747 1.251,0.7659 0.7044,-0.565 0.8555,-0.5846 1.344,0.1244 0.4336,0.6314 0.7923,1.3589 1.4037,1.771 0.4865,0.3272 0.729,0.4485 0.9617,-0.0997 0.4984,-1.176 1.1447,-0.5898 1.8722,-0.1628 1.0316,0.6031 2.1994,0.3704 3.3225,0.2275 0.0565,0.653 0.3057,1.3805 0.7173,2.0814 -1.9133,0.1114 -2.1296,2.3489 0.9022,4.7446 0.2841,0.224 0.5866,0.4234 0.9053,0.5964 -0.033,0.9316 -0.0715,1.8569 -0.1111,2.7775 -2.4918,4.1194 -4.6182,8.3688 -5.7393,13.0302 -0.2363,0.9783 -0.5749,1.0034 -1.2012,0.8955 -6.2977,-1.0532 -8.5768,0.7989 -11.2946,5.7742 -0.5247,0.9583 -0.7358,0.9983 -1.6744,1.4402 -2.46,1.1627 -5.2194,2.839 -5.8806,5.6283 -3.7542,-0.0832 -6.6678,3.0015 -6.1812,6.8557 -4.7595,2.2858 -5.0467,8.2095 -0.8672,11.2161 -3.5435,4.5002 -0.2841,8.7013 2.686,9.5387 -1.7207,3.4386 1.2294,8.3774 4.8376,9.1183 -2.1182,3.9802 1.0964,8.4968 5.9587,8.3657 4.6779,-0.1263 8.0949,-4.1995 6.1827,-8.6168 4.5983,-0.2174 7.052,-6.0035 4.3075,-8.8672 5.1264,-2.2246 4.5915,-7.5236 2.8241,-10.1551 3.9986,-1.8522 5.7759,-7.6249 1.4637,-10.1182 1.0897,-3.1828 -1.2875,-7.5699 -4.4836,-7.3372 -0.9536,-2.5236 -1.8106,-3.7679 -4.0917,-5.0884 -1.1776,-0.6828 -1.3373,-1.5449 -0.3453,-2.4918 1.7576,-1.6826 4.7976,-0.9119 6.4551,0.5318 2.9038,2.5282 2.2826,6.8902 5.8127,9.8741 -0.0565,4.2525 -0.1444,8.7942 -0.1942,12.7559 -0.0997,7.8093 0.166,15.6088 0.0828,23.358 -5.4552,5.2296 -11.2181,10.4789 -10.6848,18.5455 -1.4268,-0.4485 -2.7128,-1.289 -4.3091,-1.3439 -1.2557,-2.6876 -2.332,-5.1213 -0.9402,-8.0216 0.9551,-1.9868 -0.1679,-2.9007 -1.7972,-0.9104 -2.0484,2.5067 -2.7229,6.603 -1.0666,9.4637 -3.7078,1.2674 -5.5517,6.326 -2.4902,8.5882 3.2625,2.4105 7.3839,-0.6094 7.6382,-4.2243 3.4783,0.7075 4.344,4.4005 6.5167,6.7129 2.2144,2.3572 4.4935,4.2992 7.1234,5.8375 0,1.6163 -0.0102,9.6233 -0.0714,10.9473 -9.625,3.6278 -4.7776,10.9603 -1.5665,13.6098 -5.8708,0.0499 -30.7506,0.0252 -39.3372,0.0452 z m 177.5513,-0.5019 c -6.012,0.0231 -11.9907,-0.0165 -17.8215,-0.1958 -4.9235,-0.1531 -9.8207,-0.0801 -14.7015,0.0529 0.0848,-0.3355 0.1778,-0.6678 0.2857,-0.9916 0.5851,-1.7509 1.6881,-2.6762 2.9838,-3.844 4.4452,-4.0135 8.4438,-8.1232 12.4024,-12.5338 1.3138,-1.4586 2.2591,-3.1012 4.249,-3.4501 1.3008,-0.2276 2.0751,-1.0799 2.6864,-2.5035 0.4733,-1.1046 0.8457,-2.3191 1.4633,-3.3704 1.271,-2.1563 0.8092,-3.7428 -0.578,-5.3477 -2.3438,-2.7076 -1.1478,-6.696 2.6032,-9.0532 3.1597,4.2458 7.4969,7.5832 11.5203,10.9356 2.2493,1.8768 2.932,4.2407 3.1628,7.0684 0.2095,2.5314 0.1212,5.0067 -0.6494,7.4019 -1.1777,3.6647 -2.4867,7.2446 -3.8755,10.9474 -0.7808,2.0848 -1.9353,3.4952 -3.731,4.8839 z m -53.286,0.3422 c -11.2346,0.0565 -22.4774,-0.0581 -33.7269,0.0898 -10.949,0.1393 -22.2267,0.4948 -33.1674,0.1629 -0.1711,-2.9454 1.5979,-6.886 2.6079,-9.7199 3.4269,-9.623 0.7876,-14.5701 -7.8057,-19.1899 -0.0565,-4.796 -0.1464,-9.5735 -0.1978,-14.3676 -0.0514,-4.741 0.0349,-9.5154 0.002,-14.2482 3.3323,-1.417 6.5649,-3.0031 10.2744,-3.4752 1.5449,-0.1942 1.0716,0.52 0.08,1.1415 -3.0054,1.8871 -4.816,3.6314 -5.9803,7.0202 -1.5818,4.5947 0.7491,9.2329 0.8139,12.2693 0.0165,0.7974 0.5862,1.7941 1.5131,0.9053 1.2243,-1.1744 1.3773,-1.1858 1.8989,0.2943 0.9786,2.7724 4.4302,3.4834 5.505,6.2809 0.6016,1.568 1.1698,1.1411 1.957,-0.0232 1.4468,-2.1398 4.2493,-1.5068 5.0349,-5.8158 0.168,-0.9155 0.9752,-1.1231 1.9024,-0.8837 1.9585,0.5066 1.3589,-0.1366 1.0199,-1.4256 -0.2939,-1.1145 0.8123,-2.2144 1.0167,-3.3272 0.7872,-2.9372 -2.5051,-4.7694 -1.5068,-7.4307 0.8256,-2.2092 2.1778,-1.5347 2.7378,-0.0745 0.9767,2.5396 1.9848,5.1095 3.7357,7.3674 1.6897,2.1775 3.0584,2.8371 5.5137,3.9437 1.0697,0.4831 1.5814,1.1992 1.4684,-0.6581 -0.093,-1.5931 0.8637,-1.216 1.7458,-0.8287 1.4272,0.6278 3.2326,0.8256 4.7662,0.485 0.6294,-0.1397 1.7108,-0.4419 0.7059,-1.1282 -0.99,-0.6761 -0.7342,-1.3636 0.4085,-1.0763 1.103,0.279 2.3407,0.5682 3.4453,0.5168 1.4205,-0.0668 2.7096,-0.5302 4.1183,-0.5066 1.1812,0.0215 1.2126,-0.3524 0.5663,-1.5752 -1.2875,-2.425 -1.1945,-5.4269 -2.7759,-7.7159 -0.2857,-0.4139 -0.9618,-1.2443 -0.0181,-1.3624 1.9436,-0.2441 1.0234,-0.8087 0.3489,-2.0499 -1.4072,-2.5962 -0.6581,-4.8788 -3.5682,-6.7777 -2.6165,-1.7042 -6.1282,-1.6477 -9.0453,-1.0512 -1.8887,0.3869 -4.1179,1.9251 -5.7394,0.8488 -0.9786,-0.6463 -1.3039,-1.1282 0.0181,-1.9071 1.7195,-1.0117 2.9187,1.0865 6.6532,-0.5365 0.9536,-0.4139 2.6182,-2.1464 4.4621,-2.7327 0.9253,-0.2959 1.138,-0.766 0.1711,-1.7179 -0.3756,-0.3654 0.4218,-1.3703 0.6977,-1.6925 1.2094,-1.4154 2.7025,-2.7625 2.8936,-4.5782 0.1828,-1.7509 -0.2723,-1.4385 -1.6046,-1.0034 -2.1598,0.7075 -4.7595,0.0165 -6.5469,-1.0614 -1.0897,-0.1048 -0.7177,-1.0136 -0.6525,-1.8157 0.0996,-1.2047 -0.6098,-0.6847 -1.4704,-0.4356 -1.0732,0.3108 -2.2544,0.4121 -3.3888,0.1813 -2.5601,-0.5399 -4.0999,-0.6494 -6.9087,0.8672 -2.5169,1.357 -5.1166,1.9503 -7.0535,3.9386 -2.7975,2.8756 -3.5219,6.7129 -4.3589,10.3027 -0.2511,1.0763 -0.9853,1.0995 -2.0617,1.2427 -1.5249,0.2025 -4.982,0.3551 -7.0017,0.9634 2.6676,-3.5501 4.4236,-5.5867 4.5664,-11.1817 0.2076,-8.0965 -5.4073,-15.5553 -10.0051,-21.7165 -0.0201,-1.063 0.0694,-3.1581 0.0694,-4.8921 0.7825,-0.3375 1.1878,0.3155 1.4539,0.8672 0.4234,0.8817 0.6243,1.0014 1.6642,-0.0134 0.7926,-0.7742 1.5731,-0.8923 2.0848,0.3206 0.7527,1.7874 0.8904,1.1663 1.6215,0.0283 0.9982,-1.5516 2.6597,-1.8957 3.0831,-3.8625 0.3422,-1.5947 0.5949,-3.266 1.5033,-4.648 1.3687,-2.0829 2.7676,-0.8853 1.8259,1.3141 -1.0234,2.3953 -2.3341,4.6661 -2.4487,7.3192 -0.1063,2.3823 0.5416,4.7626 1.5249,6.8573 0.4301,0.9171 0.3838,1.1246 1.4119,0.5235 1.1894,-0.6961 2.6813,-0.5003 2.8972,1.1211 0.1844,1.3754 0.45,1.3903 1.2509,0.8142 0.9171,-0.6612 1.6431,-0.0498 2.0947,0.6993 0.2743,0.4532 1.3275,1.6975 1.9985,2.0762 1.2973,0.7326 2.9819,0.8739 4.3589,1.4519 0.8554,0.3591 1.0116,0.374 1.2176,-0.6726 0.2708,-1.3887 2.2827,-2.633 2.987,-3.9436 0.5729,-1.0666 0.7888,-2.2909 0.6561,-3.6031 -0.0714,-0.7044 0.1825,-1.3189 1.0795,-0.9088 0.3642,0.1663 0.7809,0.3673 1.178,0.4155 0.9587,0.1146 0.7676,-0.2727 0.8006,-0.9021 0.0981,-1.8855 1.3938,-3.4587 1.1132,-5.5718 -0.2394,-1.7756 -1.1246,-3.7161 -1.9487,-5.3206 -1.7242,-3.3508 -3.0615,-3.5501 -5.56,-5.9305 -0.6945,-0.6596 -0.9104,-1.3722 0.3971,-1.4272 1.8855,-0.0812 3.6345,1.5967 5.4867,1.8958 1.683,0.2707 3.5269,-0.3042 5.321,-0.2841 0.6376,0.007 0.9602,-0.0734 0.7326,-0.912 -0.2609,-0.9469 -0.4136,-1.4853 0.6443,-1.6332 3.4438,-0.4799 3.7777,-1.8039 5.6499,-2.1512 1.1062,-0.206 1.4786,-0.4881 0.7891,-1.4385 -1.0449,-1.4354 -1.1199,-3.0235 -2.0366,-4.7576 -1.178,-2.2292 -2.0385,-1.7458 -3.6862,-2.8441 -0.839,-0.558 -0.4187,-1.2608 -0.0365,-1.9534 0.7075,-1.2906 0.2358,-1.1262 -1.025,-1.3075 -3.0682,-0.4501 -4.5052,-2.8155 -7.7594,-3.0365 -2.8607,-0.1946 -6.8938,0.3921 -9.0269,2.5248 -1.4771,1.477 -2.4887,3.4987 -4.01,4.962 -0.5286,0.5034 -1.0799,0.8472 -1.6713,0.2876 -1.9734,-1.8608 -3.6827,-4.1599 -6.7211,-5.4007 -0.8123,-0.3304 -1.6113,-0.5945 -2.4086,-0.8138 0.1793,-0.1927 0.3335,-0.4121 0.4501,-0.6612 0.7043,-1.5069 1.8902,-2.4071 3.3056,-3.1397 1.0434,-0.5384 2.2477,-1.0151 3.5317,-1.4586 1.0033,2.5601 4.4671,4.9188 6.9871,4.3758 5.0947,-1.1015 5.6428,-5.4455 4.9353,-7.9522 1.8224,0.7327 3.0698,2.7975 8.7844,3.8919 3.9484,3.7711 7.8258,7.6315 12.4024,10.4125 6.4355,3.9088 6.8974,9.7494 11.9822,11.0883 -1.8738,2.075 -3.4669,6.4488 -0.932,8.6235 1.0101,0.8672 1.9801,0.8256 1.7278,-0.055 -0.3858,-1.3322 0.1044,-4.5632 2.0864,-4.6131 -0.3806,1.5614 0.166,2.8273 1.0979,3.9319 1.583,1.8742 0.2641,2.4588 0.3987,4.723 0.0879,1.437 0.7193,1.043 1.2891,0.0797 0.2923,-0.4901 0.7393,-0.819 1.3055,-0.9088 3.0035,6.3691 8.4772,11.8844 14.7098,15.0138 3.3225,1.6662 6.3809,3.1197 9.3675,5.4886 2.6429,2.0947 5.0334,4.5017 7.7512,6.8491 -0.4336,0.6196 0.0184,1.3538 0.4038,1.8058 0.7758,0.9136 1.6893,1.8604 2.6244,2.6645 -0.0165,4.4687 -4.8654,8.8707 -7.1528,11.3425 -4.9121,5.3077 -5.2461,13.0934 -3.4539,19.7781 0.5948,2.2194 1.3408,4.3043 2.3838,5.972 2.0484,3.2778 2.2493,6.9538 -0.3853,12.2647 -2.0598,4.1544 -5.8324,7.5036 -8.6914,11.9852 -1.5233,2.3855 -3.5796,3.62 -5.7723,4.8341 -3.248,1.7976 -6.1965,2.9968 -7.7579,4.683 z M 341.1519,136.7629 c -0.2476,-5.0082 -2.6546,-9.1281 -5.3638,-13.1083 l -0.009,-0.4419 c 2.2426,-0.1098 4.5221,-0.937 6.213,-2.2826 0.5517,0.7311 1.3055,1.3523 2.2426,1.8306 -1.8655,3.2742 -0.7809,7.2729 2.3505,8.8111 -0.3787,1.2643 -0.3905,2.4867 -0.0746,3.6015 -0.3056,0.1428 -0.6113,0.2806 -0.9205,0.4167 -1.5116,0.6565 -2.7791,1.0866 -4.4386,1.1729 z m -5.505,-24.7832 v -0.3457 c 0.0149,-4.6312 0.1044,-9.2957 0.1977,-13.9022 3.1876,-3.2742 5.2128,-6.9738 6.5167,-11.0737 1.0996,-3.4582 6.8173,-5.226 8.972,-1.7458 0.6895,1.1164 0.9073,2.4172 -0.0482,3.4222 -1.4849,1.5629 -2.9086,3.1031 -3.9437,4.8372 -4.3055,-0.5596 -7.4769,4.3274 -6.0431,8.0004 -2.4835,2.1511 -4.3326,4.7394 -3.5054,8.1 0.3308,1.3436 0.952,2.2925 1.8424,3.0251 -0.0797,0.0812 -0.1562,0.1644 -0.2343,0.2539 -0.9186,-0.6161 -2.2108,-0.4717 -3.7541,-0.5714 z m 31.3399,13.7429 c 0.3587,-1.5861 0.206,-3.2856 -0.653,-4.4668 0.5215,-0.1942 1.0117,-0.4171 1.4704,-0.6643 0.2806,0.0596 0.5631,0.1244 0.8437,0.1974 0.9916,0.2625 2.0832,0.2527 2.8272,1.1266 1.3507,1.5794 3.2692,2.1711 4.7529,3.4335 0.8786,2.3886 2.3886,4.5299 4.0896,6.5901 -1.2937,-0.3241 -3.7792,-1.4935 -5.5015,-2.6068 -1.9718,-1.269 -2.5699,-3.545 -5.2065,-3.5132 -0.822,0.01 -1.7175,-0.0534 -2.6228,-0.0965 z m -31.1422,68.5357 c 1.4068,2.4121 2.6712,5.4321 2.5417,8.3724 -0.0734,1.7258 -1.1914,5.1582 -2.5982,6.2561 0,-4.7826 0.5596,-9.7893 0.0565,-14.6285 z m 0.3356,-42.6294 c 1.8572,-0.819 4.1877,-1.2809 6.417,-1.0815 2.8273,0.2527 4.4122,1.0681 6.2993,2.8124 1.0363,0.957 1.1329,1.2027 -0.281,1.3208 -2.0562,0.1676 -3.9633,-0.653 -6.1196,-0.5564 -2.108,0.0945 -4.6413,0.4002 -6.3157,1.8121 z m 23.4874,-58.1598 c -0.1295,0.3606 -0.206,0.671 -0.2641,0.8955 -0.6364,-0.2774 -1.3691,-0.693 -2.1315,-0.8574 -0.1974,-3.3904 1.3126,-2.1794 2.3956,-0.0381 z m -5.9488,0.4301 c -0.5631,0.2343 -1.3174,0.5764 -1.8157,1.0701 -0.4301,-0.354 -0.7723,-0.6447 -1.2891,-0.8472 0.892,-2.0068 3.2558,-3.8158 3.1048,-0.2229 z m -47.2725,85.3935 c -0.95,0.0848 -2.0099,0.613 -2.6911,1.2443 -0.2425,-0.2295 -0.4685,-0.4202 -0.7326,-0.6082 0.4156,-1.0281 1.3408,-1.9483 2.447,-2.2842 1.2059,-0.3653 1.1164,0.4654 0.9767,1.6481 z m 6.8989,0.6926 c -0.2476,0.2127 -0.95,0.726 -1.249,1.2659 -0.5168,-0.8986 -1.6399,-1.4503 -2.2179,-1.7144 0.2959,-1.5316 0.6962,-2.2092 1.6466,-1.7725 1.0198,0.467 1.4417,1.51 1.8203,2.221 z m 11.2813,60.5954 c -1.7113,-1.1744 -1.9271,-3.3127 -1.6163,-5.2347 0.2908,-1.809 0.9002,-3.5564 1.7556,-5.1711 l -0.1393,10.4058 1.397,-90.7491 z m 1.5449,-100.2579 0.1511,-9.8855 c -0.5082,-1.5284 -1.2557,-2.4121 -1.9703,-3.4936 -0.3037,-0.4602 -0.5615,-0.7557 -0.0828,-1.256 0.7158,-0.7476 0.6891,-0.8786 0.0165,-1.5697 -2.1712,-2.221 -4.9455,-3.2275 -7.7661,-4.0249 -2.2559,-0.638 -4.7477,-1.5449 -5.4105,-4.1363 0.691,-1.7227 2.5667,-2.7394 4.2031,-3.042 3.0878,-0.5697 4.9317,1.4237 6.55,3.6431 1.9899,2.7276 1.7541,6.3908 4.4436,8.8327 l 0.0165,5.0467 z"
       style="fill:#e73b25;fill-rule:evenodd"
       id="path4" />
    <g
       id="Layer1000">
      <g
         id="Layer1001">
        <g
           id="Layer1002">
          <g
             id="Layer1003">
            <g
               id="Layer1004">
              <g
                 id="Layer1005">
                <g
                   id="Layer1006" />
              </g>
            </g>
          </g>
        </g>
        <g
           id="Layer1007">
          <g
             id="Layer1008" />
        </g>
        <g
           id="g1090">
          <path
             d="m 339.5756,80.8109 c -0.3107,0.2225 -0.6031,0.2841 -0.9205,0.2574 -0.8837,-0.073 -0.892,0.6129 -0.0416,0.9484 1.3522,0.5369 2.5035,-0.1993 3.6415,-0.9084 1.9236,-1.196 4.2278,-1.7395 6.4951,-1.4786 3.0317,0.3473 4.8823,2.4239 6.0635,5.0617 0.6678,1.49 1.1795,3.0682 2.6978,3.7824 1.3671,0.6447 3.5563,1.8541 4.0449,3.492 -0.4218,0.2076 -0.8092,0.5914 -1.0383,0.7291 -0.9069,-1.289 -2.07,-2.6613 -3.2177,-2.3305 -1.2459,0.3606 -1.2558,1.7191 -1.191,3.0631 -0.354,0.0232 -1.0481,0.1115 -1.4119,0.1397 -0.113,-1.59 -0.5085,-2.7409 -1.3824,-2.8092 -1.5912,-0.1197 -2.6676,1.6512 -3.5466,2.9937 -0.3987,-0.1362 -0.9418,-0.3206 -1.3071,-0.4352 0.8437,-1.3326 2.5632,-2.9803 3.9982,-4.6018 0.7527,-0.8487 1.5186,-2.4337 0.8323,-3.7161 -0.9716,-1.8156 -2.7225,-3.2691 -4.9435,-3.4335 -3.545,-0.259 -6.6081,1.754 -7.7512,5.0083 -1.4684,4.1779 -3.9088,8.2962 -6.6497,11.7796 -3.487,4.437 -7.2293,10.0201 -7.6582,15.7646 l -0.0397,8.3076 c -1.4652,-0.6094 -1.8372,-5.5184 -4.2329,-8.0385 -1.4833,-1.5598 -2.7872,-2.8853 -5.6279,-2.9866 -3.3491,-0.1165 -7.854,3.9335 -9.2097,6.9617 -0.5816,1.2977 -0.5051,1.4802 0.3288,3.1946 0.804,1.6548 1.9554,3.1067 3.3672,4.3341 1.6713,1.4519 6.2911,3.5219 7.8093,5.6197 1.0101,1.3907 0.58,1.3157 -0.4038,0.3688 -1.5747,-1.5182 -6.7941,-3.8553 -8.6411,-5.2974 -1.2628,-0.9885 -2.2827,-2.2277 -3.0851,-3.6314 -0.8437,-1.4719 -0.8104,-1.9816 -1.6925,-0.8986 -1.776,2.1861 -2.7943,4.736 -3.6333,7.3058 -0.9551,2.9368 -1.9883,8.8739 -2.5463,11.8841 -0.3241,1.7509 -0.6263,1.1446 -0.5717,-0.2194 0.1212,-3.0847 1.0351,-9.289 1.8125,-12.183 0.8389,-3.1165 2.5899,-6.2028 4.1611,-8.7876 0.392,-0.6431 0.565,-1.0948 -0.2688,-1.5798 -0.9206,-0.5349 -3.1181,-2.0448 -3.879,-3.0898 -0.8389,-1.1529 -0.5913,-1.3754 0.3104,-0.6247 0.9967,0.8272 2.7476,1.8007 3.6682,2.241 0.9351,0.4485 1.1196,0.3771 1.8008,-0.452 2.6577,-3.226 5.7527,-6.6894 10.128,-6.9319 2.4619,-0.1362 4.517,0.7989 6.4237,1.9385 0.9967,0.5996 1.9389,0.8919 2.9156,-0.0483 0.5034,-0.4834 0.7809,-1.7325 -0.1464,-1.1992 -0.2056,0.1197 -0.4234,0.2873 -0.6608,0.259 0.8386,-3.8291 2.9069,-7.2375 5.3206,-10.4768 2.8956,-3.8908 5.7276,-7.7646 7.389,-12.2482 0.8555,-2.314 1.3554,-5.2595 -0.0945,-7.4754 l -0.2594,-10.2178 c 1.9538,1.6312 1.3589,9.4138 2.8441,10.6648 z"
             style="fill:#60b122;fill-rule:evenodd"
             id="path6" />
          <path
             d="m 284.2047,279.2465 c 8.5949,0.0263 34.5695,-0.4269 40.2672,-0.115 0.2892,1.3475 0.3108,3.2527 0.2143,5.0801 -0.0864,1.5947 -0.3603,3.3806 -0.8355,4.3059 -0.7808,1.5249 -0.1228,1.9051 1.2275,0.9021 2.6264,-1.9455 1.304,-8.1267 1.5068,-10.0405 0.2826,-2.6613 -0.2158,-4.834 -0.113,-7.5797 1.4221,-2.6896 4.3357,-3.2742 6.771,-4.1681 -0.0314,2.9104 -0.3952,6.6713 -0.1495,10.3277 0.1927,2.8489 -0.0581,5.6428 -0.0334,7.9439 -0.1193,0.764 0.0899,2.3968 0.7295,3.3519 1.0583,1.5818 2.201,1.6065 1.6779,-0.2605 -0.3688,-1.3142 -0.7243,-2.9352 -0.5882,-3.8174 -0.1397,-5.2311 0.2111,-13.042 0.2939,-18.2732 1.4088,-1.1395 4.8792,-0.9786 5.7727,-4.1744 0.3057,-1.0948 -0.1695,-1.5433 -0.8703,-0.7063 -1.6929,2.0236 -4.7893,2.9803 -7.256,3.8157 -3.3873,1.1498 -7.1814,2.1712 -8.527,6.0451 0.1079,1.3141 0.2209,3.339 0.2225,4.7096 -1.1195,-1.3706 -3.4037,-3.1581 -3.7608,-4.8258 -1.0066,-4.721 4.2642,-6.623 8.0153,-8.02 2.0067,-0.7475 4.0782,-1.2412 5.9288,-2.3556 1.5414,-1.0285 2.4384,-2.4055 2.3023,-4.4071 -0.075,-1.0701 -0.9869,-1.8675 -1.0831,-0.5482 -0.0498,0.6741 -0.3472,1.1941 -0.6612,1.6826 -2.8139,-3.8522 -7.3509,-4.9737 -11.0917,-7.502 -3.3606,-2.2709 -6.3091,-4.9251 -8.3606,-8.432 -1.0517,-1.7992 -2.0021,-2.2626 -3.8857,-2.9286 -2.108,-0.7444 -2.985,-1.0033 -5.0965,-0.339 -0.9701,0.3057 -2.7112,2.3541 -1.7243,3.4834 0.9104,1.0418 2.7955,-0.2625 2.4102,-1.8753 0.5584,-0.3406 1.1878,-0.3889 1.8871,-0.3606 0.1628,2.7445 -2.8038,5.0734 -5.1978,3.399 -2.4435,-1.7113 -0.3603,-5.261 2.1814,-6.1898 1.5731,-0.5729 3.3354,-0.334 4.8952,0.1762 1.2659,0.4151 4.6614,2.2477 5.8076,0.9849 0.7743,-0.8519 0.387,-1.043 -0.2075,-0.8303 -0.6746,0.2425 -1.0815,-0.1299 -1.2495,-0.4619 -0.4897,-7.1716 4.1015,-12.1964 8.9457,-16.607 6.1098,-5.5616 15.4557,-9.2926 15.2615,-18.9642 -0.075,-3.7526 -1.7246,-7.309 -3.9869,-10.2395 v -8.1664 c 3.5133,4.0881 7.7709,12.3726 8.2194,17.7066 0.4136,4.9388 -1.3307,10.2394 -5.1912,13.5219 -0.9869,0.8409 -2.1213,1.3193 -2.3407,0.7778 -0.3155,-0.7742 -0.9818,-1.1996 -0.7808,0.6859 0.0965,0.9135 1.8007,0.3124 2.3874,0.113 4.2309,-1.4354 9.1163,-2.6731 13.8743,-1.4519 1.5382,0.3936 1.5115,0.4301 2.1645,-0.3324 0.4999,-0.5862 1.1227,-1.1478 1.6112,-1.7058 0.8853,-1.2227 1.922,-2.3422 3.0698,-3.3107 1.6414,-1.3887 3.6894,-2.781 5.6479,-3.4536 2.5652,-0.8821 2.8242,-0.5933 0.6781,0.4866 -1.7576,0.8837 -3.6133,1.9369 -5.1947,3.2743 -1.5151,1.2808 -2.761,2.8155 -3.7259,4.4836 -0.5317,0.9218 -0.7028,1.0399 0.6161,1.3369 2.1629,0.4886 4.3157,1.1313 6.4323,1.8126 1.9585,0.6278 6.7474,2.9768 8.4438,4.1132 1.9801,1.3306 1.809,1.736 -0.3524,0.6894 -1.6693,-0.8076 -6.6728,-3.2577 -8.4438,-3.8358 -2.1064,-0.6894 -4.4036,-1.0449 -6.5747,-1.5284 -1.2495,-0.2774 -1.2809,-0.239 -2.3309,0.8539 -2.1261,2.2112 -3.392,4.5782 -4.2078,7.2493 -0.7609,2.4887 -1.1694,6.6847 -0.9186,9.4339 0.1495,1.6414 -0.1911,2.1978 -0.7974,0.0498 -0.8755,-3.1063 -0.2559,-7.2842 0.3822,-9.5351 0.726,-2.5581 2.0134,-5.1896 3.2028,-7.2976 0.5682,-1.0034 0.5215,-1.1709 -0.9535,-1.548 -2.4553,-0.6298 -5.148,-0.414 -7.4487,0.0263 -4.6414,1.0932 -11.4457,3.6898 -15.0605,7.0617 -4.9687,4.6383 -10.0402,11.8279 -5.6397,18.4494 3.8322,3.9154 8.4536,6.4967 12.8941,9.2577 2.3556,1.4636 5.427,2.8174 6.5751,5.5682 1.8954,4.535 0.4403,8.713 -1.0218,12.8509 -1.5414,4.3706 -2.6876,6.6081 -2.128,12.0638 0.2358,2.3022 -0.5914,6.3389 1.475,7.6794 1.3075,0.8472 2.1316,0.7028 1.5104,-0.2524 -1.5684,-2.3972 -1.0018,-6.0932 -1.1631,-8.9955 10.4624,0 21.2834,-0.1711 31.6692,-0.3684 11.399,-0.2194 22.9393,0.1428 34.3599,-0.1064 -0.2045,0.6895 -0.2194,1.4668 -0.008,2.3721 -0.7145,2.7908 -3.0101,4.5449 -5.4968,5.9336 -3.3923,1.8973 0.6279,4.7446 3.133,4.8376 -0.0499,3.565 5.9186,3.118 9.2278,1.9451 2.0417,-0.7224 3.2593,-1.9816 4.2278,-3.9005 0.8602,-1.7058 1.3903,-3.7145 1.3369,-5.6546 1.271,-0.4069 0.9469,-2.2477 1.9672,-2.9387 0.784,-0.5317 0.8154,-0.0349 1.1595,0.4634 0.5231,0.7676 1.7788,0.5266 2.48,-0.038 0.392,-0.3155 0.8822,-0.4568 1.3405,-0.6546 1.0599,-0.4552 1.364,-0.9633 1.7293,-2.0083 0.113,-0.3241 0.2076,-0.653 0.2939,-0.9869 6.6882,-0.0181 13.3595,0.1397 20.1372,0.2378 3.4135,0.0498 6.829,0.0565 10.2476,0.0447 -0.97,0.6032 -1.9518,1.1878 -2.9151,1.8573 -2.6166,1.8223 -2.4153,3.8985 -2.1697,6.9903 -0.8687,1.9518 -2.6993,3.8919 -4.4903,5.0715 -1.1791,0.7758 -1.7556,1.995 -0.9166,3.3076 0.8554,1.3322 2.7821,1.7556 4.6096,1.7807 0.731,1.8522 2.3073,2.0284 4.7975,1.9287 2.9953,-0.1181 6.1349,-1.5598 7.8725,-4.07 1.5151,-2.1928 2.1645,-5.0617 2.1029,-7.7462 0.9088,-0.6961 0.8621,-1.9769 0.8523,-3.1561 -0.0118,-1.4986 1.9334,-1.5084 2.4137,-2.3889 0.9885,1.4966 1.8404,0.3853 2.9603,0.0914 2.1626,-0.5682 2.8422,-1.3224 2.7143,-3.8107 2.7476,-0.0184 5.4968,-0.0282 8.2444,-0.0168 9.2098,0.04 18.3211,0.1314 24.2202,0.2593 -4.1431,9.9719 -13.5039,15.6947 -24.7252,20.1568 -17.2663,6.3589 -35.5379,9.2776 -53.2378,14.1549 -12.3859,3.5332 -25.1885,7.8924 -34.3598,17.3561 l -0.0448,0.0498 -0.0431,-0.0498 -0.0436,0.0498 -0.0432,-0.0498 c -9.1713,-9.4637 -21.9739,-13.8229 -34.3599,-17.3561 -17.7014,-4.8773 -35.973,-7.796 -53.2393,-14.1549 -11.0667,-4.402 -20.3278,-10.0268 -24.5541,-19.7514 z"
             style="fill:#60b122;fill-rule:evenodd"
             id="path8" />
          <path
             d="m 328.0668,140.461 c 0.1561,-7.165 0.2126,-14.3413 0.2126,-21.5094 l 0.008,0.02 c 1.0414,2.5 3.1714,3.7958 5.5616,4.1513 0,4.8792 0,9.778 -0.1178,14.7965 -0.7773,0.4634 -1.4271,1.1293 -1.8721,2.0911 -0.7228,0.1628 -2.3109,0.4203 -3.7926,0.4505 z m 0.2091,-24.8484 c -0.003,-1.0579 -0.006,-2.1178 -0.0129,-3.1745 1.2043,-4.4452 2.9583,-7.6661 5.95,-11.3575 -0.1758,3.6047 -0.2672,7.145 -0.3155,10.6531 -0.6031,-0.1429 -1.2361,-0.3587 -1.8871,-0.6942 -3.2577,-1.6728 -3.1149,2.0649 -1.8356,4.2027 -0.8837,-0.2307 -1.5167,-0.0612 -1.8989,0.3704 z"
             style="fill:#60b122;fill-rule:evenodd"
             id="path10-5" />
          <path
             d="m 345.8581,105.2535 c -1.55,1.55 -1.7129,4.0335 -1.1129,6.0619 -1.2757,-0.3108 -2.5981,-0.3822 -3.7479,0.0796 -1.0363,-0.7577 -1.7874,-1.902 -1.829,-3.1196 -0.0679,-1.9605 1.1415,-4.1728 2.914,-5.1731 1.1329,1.0846 2.1394,1.9122 3.7758,2.1512 z"
             style="fill:#60b122;fill-rule:evenodd"
             id="path12-8" />
          <path
             d="m 373.7378,105.3849 c -0.3889,2.2458 -3.0498,5.0597 -5.5416,4.6198 0.5348,-1.2113 1.8902,-3.9174 -0.7146,-6.7627 1.12,-0.5584 2.3772,-1.8157 2.8823,-3.0466 3.007,0.01 3.7047,3.2809 3.3739,5.1895 z"
             style="fill:#60b122;fill-rule:evenodd"
             id="path14-9" />
          <path
             d="m 335.0555,87.2197 c -1.8023,4.703 -3.5732,7.7676 -6.7859,11.8542 0.053,-8.467 -0.3174,-25.8015 -0.2558,-34.9811 0.01,-1.8541 0.5596,-2.2975 3.339,-2.6515 3.224,-0.4101 3.3955,0.4038 3.3986,2.4769 0,0 0.2574,18.6868 0.3041,23.3015 z"
             style="fill:#60b122;fill-rule:evenodd"
             id="path16-4" />
          <path
             d="m 326.1946,66.1408 c -4.0634,0.3472 -7.6347,3.2726 -9.6363,6.7513 -0.9504,1.656 -2.0653,4.5166 -0.6581,6.0866 1.756,1.9617 4.256,-0.9072 5.0385,-2.2661 0.5862,-1.0199 1.2392,-0.9186 0.9068,0.3853 -0.7573,2.9588 -4.8988,6.625 -7.5432,2.7229 -1.7509,-2.5863 -0.2527,-6.0717 1.1078,-8.3606 2.7194,-4.5719 5.7778,-6.4339 10.8343,-7.0668 z"
             style="fill:#60b122;fill-rule:evenodd"
             id="path18-8" />
          <path
             d="m 368.9551,97.1719 c 0.7028,4.1548 -4.083,6.477 -6.7325,4.0002 0.2507,-1.9868 -0.1978,-4.0002 -1.4554,-5.5102 0.2907,-4.3239 7.3556,-3.412 8.1879,1.51 z"
             style="fill:#60b122;fill-rule:evenodd"
             id="path20-7" />
          <path
             d="m 350.7172,96.2132 c -0.6463,1.2279 -1.8572,3.4206 -0.3009,6.3574 -1.3621,1.0101 -3.259,1.2957 -4.8506,0.7511 -2.2343,-0.7593 -3.2228,-2.7575 -2.6793,-5.3556 0.7275,-3.4755 5.56,-4.3989 7.8308,-1.7529 z"
             style="fill:#60b122;fill-rule:evenodd"
             id="path23" />
          <path
             d="m 360.7373,99.3631 c 0.1613,2.3371 -1.9184,4.1677 -3.9421,4.6896 -2.5082,0.6459 -5.4203,-1.1729 -5.2625,-3.8758 0.1346,-2.3638 1.3373,-4.6547 3.977,-4.9353 2.8273,-0.3025 5.0597,1.6909 5.2276,4.1215 z"
             style="fill:#60b122;fill-rule:evenodd"
             id="path25" />
          <path
             d="m 365.8586,103.7718 c 1.512,1.0897 1.6481,3.2577 1.2028,4.8356 -0.2225,0.7926 -0.6793,1.5567 -1.2809,2.1947 -2.1743,0.4317 -4.1661,0.985 -6.1262,1.4417 -0.6844,-0.2672 -1.2726,-0.7326 -1.6564,-1.4833 -0.6741,-1.3275 -0.7141,-3.0533 -0.3221,-4.3957 1.1878,-0.671 2.9152,-1.9303 3.5383,-3.4583 1.4288,0.6145 3.0765,1.0897 4.6445,0.8653 z"
             style="fill:#60b122;fill-rule:evenodd"
             id="path27" />
          <path
             d="m 355.6423,110.0161 c -0.2342,1.2644 -0.9931,2.3525 -2.013,3.0883 -2.4172,0.0482 -4.7944,-0.2626 -6.977,-1.158 l -0.0369,-0.0149 c -0.3053,-0.6161 -0.4783,-1.3538 -0.4932,-2.2042 -0.0232,-1.477 0.3437,-3.12 1.1128,-4.0469 1.5202,-0.1675 3.286,-0.008 4.4688,-1.4884 1.3388,0.9967 2.7907,1.6862 3.7243,2.1645 -0.2009,1.1545 -0.2292,2.3639 0.2142,3.6596 z"
             style="fill:#60b122;fill-rule:evenodd"
             id="path30-7" />
          <path
             d="m 345.0226,121.3257 c -0.4104,-0.1794 -0.7675,-0.4089 -1.0383,-0.6911 -0.0482,-0.0498 -0.0945,-0.1016 -0.1412,-0.1546 0.4104,-0.2209 0.8158,-0.412 1.271,-0.2127 0.689,0.3057 0.3237,0.6762 -0.0452,1.0132 z"
             style="fill:#60b122;fill-rule:evenodd"
             id="path34-9" />
          <path
             d="m 374.0352,148.7816 c 1.0281,0.246 1.4786,-0.0479 0.8837,1.1862 -0.3987,0.8256 -0.1511,1.3291 0.6777,1.7309 5.0801,2.4584 3.0466,3.977 5.6463,6.9801 -1.4334,0.5086 -2.9152,2.5318 -6.2459,2.3839 -1.455,-0.0647 -1.1129,0.7526 -0.972,2.314 -4.8686,1.7278 -7.1445,-1.9467 -10.0899,-1.6128 -1.9052,0.2143 -3.095,1.9318 -1.769,3.6263 1.5131,1.9369 4.5048,2.4619 5.2308,4.9804 2.8375,2.2689 2.5569,7.1182 1.3973,10.0401 -1.8156,-0.5082 -2.7974,0.0118 -2.801,1.7956 -0.007,4.4688 -2.6628,4.4107 -2.9583,6.346 -0.1711,1.0996 -0.5949,1.1808 -1.5881,0.7574 -2.9387,-1.251 -2.801,-1.3456 -4.648,-3.6329 -1.1047,-1.3656 -2.0731,-0.2425 -3.1314,-0.4536 -0.3407,-1.8024 -1.0282,-4.1132 -4.1996,-2.0417 -1.0913,-1.7294 -1.1925,-4.7611 -1.0465,-6.6929 0.2291,-3.0384 2.5565,-4.7144 2.7841,-7.2144 0.2009,-2.2045 -2.128,-3.9719 -4.0865,-2.4004 -1.4767,1.1828 -2.0484,3.1114 -2.2477,4.995 -0.2873,2.7096 -2.2591,3.3209 -2.8454,4.7312 -2.3505,-3.1416 -2.4568,-1.608 -3.5316,-0.9186 -1.0568,-2.0699 -0.8708,-0.9602 -2.4738,-0.7644 -1.0049,0.1213 -2.1527,-0.2025 -3.1129,-0.1844 0.6812,-1.8804 0.8272,-2.8356 0.6011,-5.1676 -0.1408,-1.4755 0.2061,-3.0204 0.9936,-4.1748 0.4485,-0.9783 1.6081,-2.794 0.4187,-3.2727 -1.3722,-0.5529 -1.3656,-0.8488 -0.5348,-1.4233 2.6993,-1.8639 2.1162,-4.5236 6.809,-4.7563 3.8754,-0.1943 6.3174,1.03 10.1747,-0.002 0.5086,0.7079 1.6363,2.1147 1.5618,2.8807 -4.9471,-0.6746 -10.7347,1.6908 -13.1021,6.2443 -0.8652,1.6729 0.4552,1.5516 1.3939,0.8837 3.6996,-2.6181 8.6117,-3.8836 13.3857,-3.3241 1.5233,1.9221 2.4337,7.0885 3.0667,9.5269 0.9951,3.8409 1.6862,7.6947 2.5914,11.4457 0.7876,3.2609 1.7309,0.6926 1.7027,-0.7475 -0.073,-3.9936 -0.4352,-7.9372 -1.1643,-11.6631 -0.6847,-3.5003 -1.7611,-7.017 -2.7794,-10.3776 2.5848,-3.0168 6.7164,-3.8374 13.0071,-4.2792 1.3856,-0.0981 1.8557,-1.2742 -0.005,-1.6611 -5.8857,-1.2278 -11.3975,0.5298 -15.0174,1.8522 -0.319,-0.8091 -0.746,-1.5084 -1.2855,-2.2642 3.1659,-1.083 4.2643,-5.839 7.6629,-7.1198 6.6929,-2.5236 7.2709,0.4069 11.6466,1.4484 z"
             style="fill:#60b122;fill-rule:evenodd"
             id="path36" />
          <path
             d="m 334.2499,158.2025 c -1.3408,0.6427 -1.9255,2.7558 -2.4404,3.8887 0.7158,0.4768 1.8655,0.073 1.6693,1.3106 -0.2307,1.4633 -1.7026,3.1479 -1.8553,4.8557 -0.1828,2.0268 0.4917,4.2792 -0.1212,6.1694 -0.4917,1.5186 -0.6479,1.3424 0.8236,1.5233 0.5682,0.0683 1.1231,0.1778 1.7011,0.2661 -0.0847,4.8124 -0.0596,9.7061 0,14.6285 0.0797,6.6297 -0.0847,13.4556 -0.113,20.0555 -2.2077,2.3222 -5.1711,3.749 -7.5232,5.7075 -0.0483,-10.6695 -0.1346,-21.3461 0.0165,-32.0125 0.0832,-5.9653 -0.5847,-12.0869 0.319,-18.0008 0.7008,-4.5881 4.1862,-10.8591 7.6362,-13.8759 0.055,1.7909 -0.0847,3.6647 -0.1126,5.4839 z"
             style="fill:#60b122;fill-rule:evenodd"
             id="path38" />
          <path
             d="m 371.6929,198.0808 c 0.0334,2.0165 0.3756,2.0134 1.7458,2.0797 2.6429,0.1264 5.1516,1.7443 7.2462,1.0897 -0.0816,2.6248 -5.3489,4.085 -3.3492,6.5603 -1.9965,0.186 -2.8221,3.7757 -7.8406,2.7558 -1.8671,-0.379 -4.6512,-0.1114 -4.5932,2.3023 0.0617,2.5467 2.3058,3.0199 4.4421,2.6448 3.1844,-0.56 6.4437,-1.6944 9.6979,-0.8888 4.0583,1.0034 3.1397,2.7692 5.1449,5.8159 0.3935,0.596 0.7408,0.8452 -0.1146,1.3738 -1.3173,0.8154 -1.1647,2.3787 -0.2943,3.5316 1.8058,2.3886 1.5135,4.2078 2.613,6.5917 -2.3336,1.1544 -4.3553,0.538 -6.7776,0.3586 -1.1345,-0.0847 -2.5699,0.9685 -2.0629,2.2426 -1.2761,0.1794 -2.462,-0.5168 -3.6364,-0.7757 -0.914,-0.201 -1.716,-0.2857 -2.3439,0.5897 -0.5137,0.7193 -0.2193,0.872 -1.1513,0.465 -4.0249,-1.7623 -5.3026,-6.0418 -6.7694,-9.5386 -0.9751,-2.3238 -3.7907,-3.9586 -5.5102,-1.342 -1.2639,1.92 -1.1015,3.4218 -0.0632,5.3324 0.7476,1.3723 1.5681,2.9121 0.4121,4.4036 -0.3905,0.5003 -0.9022,1.0516 -0.706,1.5814 0.2806,0.7593 0.859,1.2992 -0.505,1.0151 -1.3373,-0.2758 -1.7509,0.2759 -1.962,1.2773 -0.8005,3.8075 -2.1363,3.193 -3.6278,5.1649 -0.8292,1.0928 -0.9336,1.2141 -1.4951,0.1809 -1.2541,-2.3156 -4.349,-3.7275 -5.0467,-6.3291 -0.3371,-1.2526 -1.3122,-1.1926 -2.48,-0.5164 -0.6181,0.3555 -0.7594,0.3802 -0.7794,-0.6962 -0.0514,-2.6079 -1.3055,-4.7261 -1.1894,-7.4918 0.1213,-2.9022 1.9071,-5.3277 3.8692,-7.3345 1.5563,-1.5927 3.7506,-1.9467 3.897,-4.1344 0.7342,0.02 1.9734,0.2857 2.3191,0.6695 -1.2263,2.1661 -2.7861,5.1629 -3.4438,8.3524 -1.1313,5.4701 -0.3457,9.6265 1.397,12.4671 1.0932,1.7776 1.4421,1.5367 1.2012,-0.4136 -0.4753,-3.8142 -0.4023,-7.2509 0.5466,-11.0321 0.7491,-2.985 2.5612,-6.3374 4.7709,-8.6812 3.8703,0.5034 7.8108,1.603 11.419,3.1063 3.2008,1.3357 6.2443,2.9552 9.1164,4.575 1.6147,0.9104 2.6212,1.3954 1.0763,-0.6612 -2.0464,-2.7209 -6.1411,-5.206 -8.9818,-6.8738 -3.173,-1.8592 -6.5649,-3.2094 -10.263,-3.6646 0.9767,-1.8604 3.3842,-4.271 4.7909,-5.2363 2.7975,-1.9201 5.8308,-3.432 9.1564,-3.9967 1.545,-0.2609 1.2012,-1.0249 -0.2903,-1.0716 -3.8393,-0.1193 -7.6202,0.7475 -10.8528,2.633 -3.0235,1.7627 -4.6265,4.3377 -7.0017,6.7596 -0.693,-0.0282 -1.4504,-0.226 -2.389,-0.4069 3.4402,-2.7626 0.8574,-11.3578 8.9787,-12.1968 4.5648,-4.0614 7.241,-1.7191 11.6799,-2.6377 z"
             style="fill:#60b122;fill-rule:evenodd"
             id="path41" />
          <path
             d="m 300.2169,107.5177 c 0.4454,-0.2508 1.0681,-0.9618 1.3373,-1.357 0.9783,1.2773 1.4637,1.5147 3.2542,2.2575 2.7061,1.1211 0.7907,3.2476 2.2046,4.9353 -2.6762,3.02 -2.1728,2.9254 -4.8341,1.658 -1.4221,-0.6797 -2.7044,-1.8126 -3.6745,-3.1016 -0.6663,-0.8869 -1.0881,-0.7358 -0.9088,0.2774 0.2476,1.4072 1.0199,2.6099 1.9287,3.7608 0.7177,0.9057 1.6128,2.2944 2.6444,2.8493 1.2443,0.6694 0.7377,0.9567 0.148,1.8419 -1.603,2.409 -2.6861,5.0287 -3.4336,7.7846 -1.1662,4.2992 -1.6363,8.9273 -1.7807,13.6098 -0.1346,4.3208 1.5978,3.5121 2.3489,0.0848 0.7758,-3.5399 1.362,-7.123 2.3988,-10.5334 0.7573,-2.4886 1.7109,-4.8972 3.005,-7.1614 0.4501,-0.7856 0.6444,-0.8723 1.0348,-0.1197 1.3554,2.608 3.7993,4.1744 6.3142,5.4141 2.9686,1.4648 5.427,2.4435 7.3875,5.4054 1.0363,1.5664 1.8737,0.0416 1.4817,-1.1545 -1.2993,-3.9539 -4.6414,-5.6616 -7.7445,-7.7779 -1.9884,-1.3554 -3.9304,-2.8606 -4.816,-5.3622 -0.5596,-1.585 0.0384,-2.5617 1.2894,-4.2227 0.8853,2.9152 3.1114,4.2509 5.5965,5.1166 2.0001,0.6957 4.1909,0.9084 6.005,2.0197 0.8441,0.5168 0.9602,0.9335 0.6196,1.7493 -0.7958,1.8989 1.9569,4.5186 2.8273,6.3872 1.6811,3.5949 -0.2107,5.7045 0.0549,8.3642 -0.5034,0.073 -0.8719,0.2923 -1.1128,0.6145 -1.4437,-0.0946 -3.0718,0.3971 -4.2361,-1.3338 -0.4767,-0.7095 -1.3671,-0.2311 -1.8855,1.0583 -0.6843,-0.2111 -0.731,-1.7313 -1.3342,-2.1382 -0.4783,-0.3237 -1.0245,-0.4815 -1.6959,-0.3536 -0.5314,-2.5184 -1.6595,-5.7095 -4.5582,-6.2679 -1.6697,-0.3206 -2.7826,0.2045 -2.7724,2.0135 0.0196,2.7476 2.4467,5.226 2.8968,8.0616 0.505,3.1714 -0.4285,4.8956 -0.4285,6.7925 -1.1812,-0.8535 -1.8188,-0.1161 -2.4102,0.9885 -0.4007,0.7495 -0.6082,1.9754 -1.1199,2.5134 -1.2357,-1.3703 -1.7639,-2.0284 -3.2374,-0.6526 -2.334,2.181 -4.8026,1.8039 -6.6913,3.1094 -0.8292,0.5733 -0.9535,0.505 -0.7726,-0.6427 0.2958,-1.8655 -0.9767,-4.5202 -0.7523,-6.4139 0.0946,-0.8072 -0.7161,-1.5198 -1.7427,-1.0199 -1.2376,0.6031 -1.0183,0.2358 -1.123,-0.952 -0.2343,-2.6362 -1.2856,-5.4583 -0.9818,-8.0651 0.4387,-3.7608 4.0186,-4.4852 5.7028,-7.2426 0.6679,-1.0913 0.6063,-2.7842 -0.3622,-3.6216 -0.8821,-0.764 -1.9035,-1.2408 -2.3536,-2.5349 -0.5565,-1.6081 -0.6083,-3.4387 -2.4553,-4.4169 2.2108,-1.8738 -0.5863,-4.2294 0.3371,-6.5783 -0.0263,-2.9655 2.6581,-4.5253 2.0699,-7.7112 1.1745,1.1976 2.9485,0.9418 4.2545,1.8321 0.7624,0.5184 1.0861,0.7958 2.0762,0.2359 z"
             style="fill:#60b122;fill-rule:evenodd"
             id="path43" />
          <path
             d="m 361.7223,120.1163 c -0.9536,1.3887 -2.5216,2.4003 -4.1544,2.3124 -1.457,-0.08 -2.7708,-0.6447 -3.8625,-1.7046 0.6447,-0.1377 1.2993,-0.2241 1.9538,-0.2641 2.0413,-0.1228 4.063,-0.299 6.0631,-0.3437 z m -5.5997,-7.2015 c 0.128,-0.2405 0.239,-0.4948 0.3371,-0.7557 0.1629,0.2193 0.3438,0.4285 0.5415,0.6247 -0.2923,0.0498 -0.5846,0.093 -0.8786,0.131 z"
             style="fill:#60b122;fill-rule:evenodd"
             id="path45" />
          <path
             d="m 357.8068,129.2378 c -0.2456,-0.1676 -0.4748,-0.3771 -0.6761,-0.6314 0.7295,-1.4351 0.7711,-3.038 0.3359,-4.2792 2.3768,0.4469 4.5331,-1.063 5.8457,-3.0215 1.9585,0.5446 2.4086,2.5514 1.9868,4.3788 -0.3175,0.007 -0.6298,0.02 -0.9355,0.0483 -1.3672,0.1295 -2.3886,1.2541 -3.2959,2.3623 -1.1195,0.3021 -2.2025,0.691 -3.2609,1.1427 z"
             style="fill:#60b122;fill-rule:evenodd"
             id="path47" />
          <path
             d="m 355.8915,124.7561 c 0.2343,3.058 -1.0846,6.3872 -4.7509,6.3538 -5.2194,-0.0514 -6.9106,-5.1315 -4.8889,-7.6798 2.1531,0.728 4.3906,0.0585 5.8441,-1.7324 1.0084,1.5398 2.281,2.2806 3.7957,3.0584 z"
             style="fill:#60b122;fill-rule:evenodd"
             id="path49" />
          <path
             d="m 337.4394,146.8081 c 0.2888,0.0381 0.596,0.0566 0.9068,0.0648 0.5847,0.0149 1.1863,0.0514 1.7973,0.113 0.4634,0.8123 1.3208,0.7691 2.1696,0.5235 0.1295,-0.0385 0.2609,-0.0801 0.392,-0.1264 2.0134,0.4219 3.9904,1.1129 5.6083,2.0982 2.5533,1.5532 5.2209,4.9337 6.6446,7.5684 0.4736,0.8719 0.673,1.2557 1.5335,0.8852 4.0881,-1.7591 6.4468,-2.7543 11.2911,-2.7209 2.6511,0.0165 2.1743,0.6278 0.2456,0.7342 -3.8373,0.2111 -7.6629,1.2824 -10.7311,3.4269 -0.7824,0.545 -0.7609,0.9586 -0.281,2.0169 1.2479,2.7473 2.0284,5.9305 2.6598,8.9206 0.4301,2.0448 1.0265,6.7824 1.2078,8.9006 0.2276,2.6479 -0.3206,2.4866 -0.6479,-0.0149 -0.2028,-1.5818 -1.2792,-6.288 -1.8074,-8.4674 -0.8307,-3.4269 -1.9255,-6.8039 -2.5765,-8.2707 -0.5667,-1.2726 -0.9022,-1.3609 -2.6083,-1.3491 -3.0714,0.0215 -7.3043,1.0548 -9.8075,2.294 -1.6846,0.8323 -2.166,0.5564 -0.3504,-0.686 3.7094,-2.5416 6.4535,-2.5898 10.3093,-3.0034 1.0297,-0.113 0.9104,-0.3854 0.6114,-1.3421 -0.9155,-2.9187 -3.5948,-6.0736 -6.1533,-7.562 -2.402,-1.3986 -5.2308,-2.0315 -8.2327,-1.6446 -3.321,0.3508 -6.3174,2.3556 -8.5384,4.9769 -3.6533,4.3125 -6.346,10.5255 -6.5669,16.142 l -0.0828,8.6149 c -1.2859,-1.7109 -2.2163,-4.0998 -3.1016,-6.2942 -0.8441,-2.0915 -2.8288,-2.9356 -4.816,-3.3276 -2.7672,-0.2441 -5.1958,0.4752 -5.9253,3.3672 -0.2873,1.1447 -0.0499,1.1796 0.844,1.7745 1.8122,1.2074 3.372,2.7108 3.9351,4.8156 -0.1126,0.4203 -0.7275,0.2523 -1.063,0.392 -0.8771,-3.7227 -4.8043,-5.6663 -5.4655,-0.352 -0.3684,-0.0498 -1.0681,-0.0651 -1.4684,-0.0133 0.671,-4.1862 -3.0996,-3.3939 -5.206,0.3802 -0.3524,-0.0729 -0.6644,-0.2476 -1.0116,-0.2723 0.5878,-2.7143 3.6097,-3.7993 5.766,-4.721 1.2192,-0.5235 1.8439,-1.0085 2.2159,-1.9471 0.917,-2.3074 1.6713,-4.1976 4.349,-4.8223 1.9636,-0.4584 4.2726,0.0616 6.191,0.3355 1.4971,0.2142 3.3724,0.1412 4.2247,-1.2859 0.4881,-0.8206 -0.1213,-1.7855 -0.9104,-0.759 -0.2939,0.3819 -0.9536,0.4866 -1.2443,0.5632 0.2558,-4.3954 3.5717,-9.8742 5.972,-13.5918 0.5117,-0.7974 1.1113,-1.6081 1.7494,-2.4404 2.9418,0.093 6.1313,-1.2428 7.9721,-3.8939 z m -0.8908,-9.796 c -0.0345,-1.0516 -0.2539,-2.1296 -0.704,-3.2291 l 0.0844,-7.0504 c 1.8043,3.0765 3.1483,6.3892 3.3657,10.0884 -0.9084,0.0236 -1.8455,0.0616 -2.7461,0.1911 z"
             style="fill:#60b122;fill-rule:evenodd"
             id="path51" />
          <path
             d="m 348.4413,134.2048 c -0.0699,-0.5882 0.003,-1.178 0.2441,-1.7093 0.6796,0.2708 1.3922,0.4085 2.1033,0.4203 -0.7794,0.4383 -1.5583,0.8719 -2.3474,1.289 z"
             style="fill:#60b122;fill-rule:evenodd"
             id="path53" />
          <path
             d="m 358.9201,143.685 c -3.1349,0.5548 -4.9039,-1.6544 -5.1032,-3.2692 2.2343,-0.691 4.555,-1.3255 6.5684,-2.0381 0.1743,-0.0467 0.3438,-0.1079 0.5066,-0.1829 0.3305,-0.1212 0.6495,-0.2456 0.9603,-0.372 1.4848,1.8804 -0.5137,5.4321 -2.9321,5.8622 z"
             style="fill:#60b122;fill-rule:evenodd"
             id="path55" />
          <path
             d="m 319.8906,185.2 c -0.1213,3.4136 -4.1929,5.7378 -6.9272,3.0996 1.2126,-1.5198 0.8421,-3.9817 0.0565,-5.706 2.5032,-3.4884 7.0233,-1.6316 6.8707,2.6064 z"
             style="fill:#60b122;fill-rule:evenodd"
             id="path58" />
          <path
             d="m 302.6973,181.7829 c -1.3326,1.9319 -1.8259,4.5881 -0.3359,6.8522 -3.4767,2.5585 -7.6213,-0.2692 -6.8338,-4.2843 0.6161,-3.1561 4.6877,-4.6362 7.1697,-2.5679 z"
             style="fill:#60b122;fill-rule:evenodd"
             id="path60" />
          <path
             d="m 312.0597,185.705 c -0.1063,2.2093 -1.5947,4.2408 -4.2792,4.2926 -2.5848,0.0463 -4.8925,-2.0417 -4.5617,-4.7909 0.3324,-2.7877 2.2061,-4.4056 5.0448,-4.2345 2.5235,0.1527 3.9123,2.3439 3.7961,4.7328 z"
             style="fill:#60b122;fill-rule:evenodd"
             id="path62" />
          <path
             d="m 297.2417,190.7051 c -1.0466,1.3506 -1.8137,4.1214 -0.8107,5.7625 -3.2127,0.9951 -7.4652,-5.2591 -2.2093,-8.6432 0.525,1.1996 1.7909,2.3227 3.02,2.8807 z"
             style="fill:#60b122;fill-rule:evenodd"
             id="path64" />
          <path
             d="m 319.4801,195.1255 c 0.3355,-1.623 0.3638,-3.6364 -0.8955,-4.8956 0.7676,-0.4352 1.5516,-1.3389 1.902,-2.1328 2.2195,1.4053 1.7643,6.3406 -1.0065,7.0284 z"
             style="fill:#60b122;fill-rule:evenodd"
             id="path66" />
          <path
             d="m 317.0464,190.9009 c 2.6747,2.334 -0.3021,7.1732 -3.412,7.3309 -3.8039,0.1927 -6.3609,-3.3472 -4.648,-6.7309 1.1709,-0.2276 2.407,-1.0548 3.1098,-1.9985 1.4119,1.0779 3.1181,1.794 4.9502,1.3985 z"
             style="fill:#60b122;fill-rule:evenodd"
             id="path68" />
          <path
             d="m 306.7921,191.7434 c -0.241,1.6909 -0.2343,3.4002 0.4834,4.8603 -1.0666,1.1631 -3.7361,2.4239 -5.8775,1.9456 -3.4104,-0.7593 -4.3474,-4.3326 -2.3371,-6.8377 1.7674,0.374 3.862,-0.6329 4.6413,-1.6775 0.9952,0.8538 2.3855,1.5547 3.0899,1.7093 z"
             style="fill:#60b122;fill-rule:evenodd"
             id="path70" />
          <path
             d="m 301.0743,200.104 c -0.7844,1.3424 -1.0917,2.9654 -0.9504,4.6449 -0.952,0.7821 -2.462,0.7558 -3.6929,0.5313 -1.4818,-0.2523 -2.628,-1.7623 -2.9368,-3.1628 -0.1962,-1.455 -0.0832,-2.9654 0.9217,-4.0268 0.9253,0.4752 2.2379,0.2511 3.1632,-0.0546 1.0066,1.0897 2.1528,1.8173 3.4952,2.068 z"
             style="fill:#60b122;fill-rule:evenodd"
             id="path72" />
          <path
             d="m 311.1493,200.5043 c 1.2706,3.6929 -1.3173,8.2746 -5.4423,7.4423 -3.6046,-0.7279 -4.8387,-5.2194 -2.5529,-7.6299 1.621,-0.1362 3.4151,-1.0964 4.6892,-2.2807 0.7891,0.9916 2.1084,1.9766 3.306,2.4683 z"
             style="fill:#60b122;fill-rule:evenodd"
             id="path74" />
          <path
             d="m 312.686,205.3403 c 0.6993,-1.344 0.8354,-3.6133 0.1377,-4.9553 2.0982,0.1377 3.7475,-0.841 5.1731,-2.2944 3.7608,4.5483 -1.9687,10.2182 -5.3108,7.2497 z"
             style="fill:#60b122;fill-rule:evenodd"
             id="path76" />
          <path
             d="m 306.4448,209.7823 c 0.9088,3.3339 -2.5083,5.726 -5.54,4.8604 -3.0651,-0.8755 -4.2859,-4.045 -3.5784,-7.2843 1.3189,0.2194 2.8391,-0.1295 3.7479,-0.8205 1.1478,1.9169 2.8704,2.9485 5.3705,3.2444 z"
             style="fill:#60b122;fill-rule:evenodd"
             id="path78" />
          <path
             d="m 315.5149,207.6143 c 2.6726,1.9852 0.224,5.9206 -2.4322,6.5634 -1.4468,0.3504 -3.6046,0.1695 -4.6959,-0.9901 0.2723,-0.8723 0.5184,-2.3109 0.2672,-3.4885 1.344,-0.3606 2.5667,-1.2278 3.3574,-2.3489 1.0646,0.3704 2.3572,0.5231 3.5035,0.2641 z"
             style="fill:#60b122;fill-rule:evenodd"
             id="path80" />
          <path
             d="m 310.8236,215.9619 c 1.7627,3.226 -0.5831,7.0151 -4.3937,7.0182 -3.4736,0.005 -5.575,-3.9849 -3.6216,-6.623 1.7792,0.0349 3.1566,-0.8158 4.2529,-2.0982 0.9501,0.9221 2.533,1.3938 3.7624,1.703 z"
             style="fill:#60b122;fill-rule:evenodd"
             id="path82" />
          <path
             d="m 333.7747,247.5726 c -2.462,-1.5382 -4.7277,-3.5517 -7.1332,-5.2296 -0.2507,-5.0067 -0.1114,-10.1547 0.1393,-15.1053 1.9307,-2.407 4.2529,-4.754 6.8542,-6.1827 -0.1413,8.7828 0.279,17.5123 0.1397,26.5176 z"
             style="fill:#60b122;fill-rule:evenodd"
             id="path85" />
          <path
             d="m 308.2373,235.3927 c -0.3822,-0.004 -1.0999,0.1593 -1.4837,0.2476 -0.7542,-1.2545 -1.6528,-5.1032 0.1644,-7.8775 0.8025,-1.2208 0.8755,-0.8025 0.6365,0.226 -0.8056,3.485 -0.3422,4.869 0.6828,7.4039 z"
             style="fill:#60b122;fill-rule:evenodd"
             id="path87" />
          <path
             d="m 333.1037,258.8468 c 0.1675,0.3921 0.39,0.7543 0.39,1.2028 -2.2375,1.231 -4.5864,2.2379 -7.1029,2.8257 l 0.1393,-8.8672 c 2.3489,1.2023 4.7544,2.6028 6.5736,4.8387 z"
             style="fill:#60b122;fill-rule:evenodd"
             id="path89" />
        </g>
      </g>
    </g>
    <g
       id="Layer1009">
      <g
         id="g1014">
        <path
           d="m 429.5387,56.8101 c -1.849,2.6131 -3.957,4.7309 -4.0747,8.3873 -1.4853,0.7358 -3.5317,0.5682 -5.7794,1.8773 -0.7491,0.4383 -1.5531,0.5015 -2.2642,0.6479 0.465,-3.8029 2.7426,-6.08 5.5134,-8.0389 0.4567,-0.3221 0.9139,-0.6926 0.5132,0.4222 -0.0894,0.2524 -0.0714,0.6361 0.0149,0.8802 0.241,0.6879 0.5368,0.52 0.6962,0.0318 0.2476,-0.7542 0.6596,-1.696 1.9004,-2.2991 1.4852,-0.7244 2.389,-2.6331 3.6231,-3.0235 0.7357,-0.2323 0.5733,0.1048 -0.1429,1.1148 z"
           style="fill:#ffffff;fill-rule:evenodd"
           id="path93" />
        <path
           d="m 500.5977,220.5248 c -1.8773,-0.2574 -2.8756,-3.1592 -3.1212,-5.7311 -0.3791,-3.9452 -1.4586,-10.0401 -5.2214,-11.4535 -1.3554,-3.2244 -6.6795,-3.2495 -9.5017,-6.0352 -1.1894,-1.1745 -1.53,-2.2375 -2.3474,-3.6365 -2.3207,-3.9735 -6.1082,-7.4337 -9.4138,-10.7346 -5.7115,-5.7095 -10.3792,-12.1599 -13.5106,-19.1134 -3.4335,-7.6283 -6.9189,-15.2399 -11.532,-22.4064 -0.0283,1.5002 -0.4733,2.9207 -0.5282,4.4754 -0.0318,0.9551 -0.5302,0.6479 -0.7793,-0.2193 -0.6644,-2.2991 0.2558,-4.0948 -0.2174,-6.1098 -0.113,-4.3953 -2.9686,-8.1597 -2.8956,-12.5103 -0.8802,0.8821 -2.2559,1.6246 -2.7543,2.761 -0.3669,0.837 -0.9484,0.5878 -0.8637,-0.2759 0.1429,-1.4535 1.6379,-2.7127 2.5515,-3.7561 0.8091,-0.9233 1.4934,-1.9004 1.5335,-3.1495 -1.2443,-0.9453 -1.678,-2.4953 -1.4535,-3.9637 0.1428,-0.9366 0.5549,-1.0665 0.877,-0.2142 0.6196,1.6414 0.4317,2.8257 2.4369,3.6913 1.362,0.5863 3.4104,0.4384 4.2627,-0.8307 0.5333,-0.7942 0.1793,-0.7408 -0.2924,-0.6098 -2.055,0.5733 -3.6117,-1.2109 -3.8789,-3.1012 -0.3355,-2.374 1.6976,-5.2131 1.4237,-7.4125 -0.0566,-0.4599 0.0482,-0.9383 0.6529,-0.1444 0.5847,0.7691 -0.5568,2.1378 0.2009,2.781 1.3789,-2.4589 2.1414,-5.3642 1.9503,-8.3677 -1.1329,-0.7409 -1.065,-2.2874 -1.2094,-3.5266 -0.0781,-0.6941 0.146,-0.8852 0.7891,-0.1562 0.6695,0.7594 0.4285,2.0865 1.3903,2.7595 1.0348,0.7259 2.9439,0.4249 3.7094,-0.5847 0.407,-0.5368 0.005,-0.4372 -0.3688,-0.4238 -1.6944,0.0698 -2.2108,-2.0382 -2.2607,-3.3339 -0.246,-6.2993 2.7127,-13.1535 -1.1729,-18.8528 -1.5433,0.7409 -3.769,2.0397 -5.3971,1.2639 -0.9485,-0.4532 -1.1694,-0.8405 -0.055,-0.9931 5.5569,-0.7609 5.1347,-2.5185 8.454,-5.4871 0.6094,-0.5446 0.9948,-1.0049 1.2907,-1.8804 1.2176,-3.6132 3.0796,-4.7893 3.1745,-9.9989 0.0247,-1.3518 -0.1546,-1.0913 -0.9304,-0.4501 -1.6379,1.3589 -2.9901,3.0451 -4.5931,4.8011 -2.3607,2.5829 -5.6397,4.1729 -8.8091,5.4121 -1.5932,0.6228 -3.0851,1.8321 -3.8558,3.3555 -0.3971,0.784 -0.9284,0.3888 -1.0964,-0.4901 -0.2574,-1.3354 0.7958,-2.5134 1.7392,-3.2507 -1.0615,-0.859 -1.5332,-2.256 -1.4551,-3.7063 -1.6198,-0.4999 -2.5067,-1.8938 -4.1513,-2.5134 -2.0931,-0.7891 -3.8389,-0.8786 -5.9037,-0.1495 -2.5036,0.8872 -5.354,0.9418 -7.5503,2.4106 -0.6196,0.4151 -1.2294,0.503 -1.9769,0.6047 -2.4004,0.3206 -5.3756,0.4418 -6.2491,3.2275 -0.1762,0.5647 0.0894,0.7126 0.5662,0.6047 0.5282,-0.1197 0.9736,-0.4387 1.5551,-0.4418 0.5945,-0.0036 0.7173,0.4701 0.3057,0.822 -0.5717,0.4886 -1.0983,0.6279 -1.776,0.9222 -3.4238,1.4766 -6.6132,3.7012 -9.5586,6.1843 -0.9516,0.8025 -2.1128,1.2679 -3.3021,1.306 -1.0949,0.0364 -2.4239,0.1479 -3.4356,0.5065 -0.4618,0.166 -0.5332,0.8355 -0.9567,1.1329 -0.432,0.3057 -0.8173,0.6345 -0.7326,1.2012 0.0663,0.4666 0.5616,0.4603 1.023,0.4018 0.7028,-0.0879 1.047,-0.1495 1.6014,-0.6694 0.3108,-0.2889 0.6047,-0.6263 0.9968,-0.7225 0.585,-0.1397 2.0883,-0.1428 1.457,0.8802 -0.9968,1.6148 -2.7708,1.8243 -4.6132,1.8408 -1.0516,0.0067 -2.0566,0.5482 -2.2159,1.4919 -0.06,0.3571 -0.2625,0.857 -0.3622,1.1659 -0.2142,0.6663 0.3453,1.05 0.6561,1.4868 0.3622,0.5117 0.9669,0.7942 1.6481,0.3308 1.6328,-1.1113 3.1711,-2.4902 5.0782,-2.967 1.9137,-0.4768 3.731,0.5564 5.4387,0.558 0.7475,0 1.2459,0.1577 0.2076,1.0917 -0.97,0.8735 -2.8622,0.2672 -4.1364,-0.002 -3.1427,-0.6577 -3.7474,1.9354 -5.4073,2.4223 0.3292,0.8786 -0.1244,2.4004 0.8558,2.9949 0.6145,0.3755 1.322,0.4834 2.0217,0.3889 0.784,-0.1099 1.6179,-0.1032 2.201,0.319 1.1195,0.1028 1.5218,-1.2047 2.4985,-1.3738 0.4634,-0.0801 0.5297,-0.7079 0.9884,-0.7958 0.6793,-0.1295 0.8319,-0.8441 0.0612,-0.9336 -0.5183,-0.0616 -0.3904,-0.6828 0.0416,-0.8739 0.8523,-0.3755 1.5681,0.0401 2.3855,0.2492 2.4568,0.6247 5.2959,0.56 7.801,0.2127 0.9022,-0.1248 1.1894,-0.2044 2.0664,0.1362 3.1149,1.2027 5.2096,2.0052 8.7346,1.0234 2.7178,-0.7578 5.2194,-2.4188 7.2944,-4.5217 0.4964,-0.5035 1.0466,-0.3556 0.6063,0.4167 -1.196,2.0998 -2.5632,3.7726 -4.4106,4.6547 -2.1579,1.0317 -4.6081,1.4869 -6.319,1.6132 -0.3107,1.5382 -0.6478,3.0996 -1.701,4.3255 -0.8955,1.0399 -3.2378,1.9071 -3.899,0.4022 -0.8437,1.2357 0.5364,2.5915 1.9338,2.7775 1.1611,0.1542 2.128,-1.1329 3.1726,-0.5565 0.6977,0.3838 0.7393,0.6977 0.133,0.6628 -0.8503,-0.0467 -2.1743,0.6345 -2.5432,1.3138 -1.6198,0.412 -2.9089,1.158 -3.8224,2.801 -1.6363,2.9419 -4.9918,1.5896 -6.0136,2.5267 -0.6593,0.6063 -0.6181,0.8884 0.1644,0.5745 0.8091,-0.3222 1.3738,0.5548 2.2245,0.8523 2.6892,0.9437 4.6512,-2.5534 6.919,-1.2906 0.6243,0.3469 0.5678,0.6459 -0.128,0.6062 -2.6997,-0.1463 -4.0053,3.0765 -6.9836,2.2776 -1.0701,0.7824 -2.3906,1.2839 -3.4489,2.241 -1.3569,1.2274 -2.387,2.9768 -3.0066,4.5962 0.9618,-0.3005 1.4119,-1.3636 2.6362,-1.4817 0.2095,-0.0184 0.3838,0.3304 0.1927,0.578 -1.5132,1.4056 -3.374,2.5734 -5.128,3.2994 -1.2691,0.5231 -2.5448,1.3487 -2.9952,2.8304 -0.1609,0.5266 -1.3605,1.3573 -1.0466,2.2724 1.2942,-1.8886 4.2062,-1.081 6.3126,-2.797 0.4537,-0.3709 0.9752,-0.3889 0.6711,0.3453 -0.5498,1.324 -1.8887,1.5567 -3.1679,1.8388 -1.357,0.3025 -2.6861,0.6432 -3.0765,2.3442 -1.2094,1.5347 -2.4569,3.3606 -2.4985,5.2708 -0.0313,1.4268 -0.7392,2.8006 -0.7958,4.2294 1.977,1.2341 4.6913,2.987 4.8058,5.52 0.0318,0.7177 -0.2923,0.7244 -0.4681,0.2743 -1.1996,-3.1016 -5.8508,-4.8988 -8.6781,-6.1381 -3.0533,-1.3388 -7.0699,-2.7876 -10.9206,-4.0967 -2.9984,-1.0147 -5.9721,-1.7674 -7.8493,-3.4865 -1.344,-1.2329 -1.8938,-2.781 -4.085,-2.7527 -0.9967,0.0133 -2.327,-0.1181 -3.2825,-0.2559 -1.0265,-0.1495 -1.716,-0.2358 -2.2971,0.6145 -0.4634,0.673 -1.2577,0.5651 -1.4303,1.3774 0.445,1.568 2.631,1.1544 3.231,2.407 0.445,0.932 -0.4336,0.4634 -0.6596,0.412 -0.6396,-0.1448 -1.3075,-0.4803 -1.922,-0.5399 -1.1211,-0.113 -1.7407,-1.2793 -1.8059,-2.0947 -5.5184,1.5429 -9.6563,4.5931 -14.2926,7.0099 -1.9436,1.0152 -4.0684,1.6446 -6.4205,1.6662 -2.4435,0.0251 -6.2942,-0.764 -7.351,2.3074 0.2476,1.0434 0.1597,1.7544 -0.3653,2.3889 1.8125,-0.0812 3.3657,0.872 4.4204,2.2242 0.5133,-0.8688 1.3903,-0.9253 2.274,-0.9135 0.5302,0.005 0.9854,0.073 0.9422,-0.6726 -0.02,-0.3206 -0.1346,-0.6648 0.0165,-0.9638 0.3057,-0.5964 0.6596,-0.5529 1.0199,0.2559 0.3374,0.7558 0.1196,1.6347 -0.2426,2.3772 -0.3602,0.7377 -0.1475,1.309 0.8492,1.065 0.9751,-0.2394 1.4068,-1.3491 1.9801,-2.3192 0.5996,-1.0116 1.3636,-1.4652 2.3372,-2.075 4.5817,-2.8752 10.0683,-3.6659 14.9856,-5.7923 -0.2194,-0.4685 -0.9618,-0.5302 -1.4237,-0.7095 -0.2543,-0.1012 -0.3257,-0.4234 0.0565,-0.5215 1.9138,-0.4952 3.3771,0.3273 4.7611,1.3322 2.5997,1.8922 3.8621,2.7508 7.1198,3.3174 1.8471,0.3191 3.9633,0.1032 5.1978,1.6662 0.1244,0.1577 0.0997,0.6812 -0.1361,0.5482 -0.7429,-0.412 -1.5932,-0.5364 -2.3607,-0.4105 2.3175,2.4702 4.8324,4.743 7.7692,6.7828 3.5168,2.4388 7.5354,5.002 10.1351,8.4571 1.902,2.5299 3.7192,5.1845 7.5483,4.8674 1.9652,-0.1613 4.6963,-1.3424 6.5238,-0.1746 0.4732,0.3006 0.244,0.7444 -0.2229,0.6812 -2.6778,-0.359 -5.0165,1.3421 -7.7826,1.2706 -1.51,0.9618 -2.5149,2.4604 -2.8771,4.0583 -0.2178,0.9653 -0.206,2.3474 0.6412,3.246 0.1526,-0.671 -0.0216,-3.02 1.922,-4.4919 0.6792,-0.5164 1.754,-0.4917 2.8339,-0.5811 0.8986,-0.0766 1.4335,-0.5718 2.0617,-0.972 0.9865,-0.6279 0.7374,0.1746 0.4984,0.7726 -0.3257,0.8237 -1.4986,1.3738 -2.4604,1.3205 -0.766,1.6214 0.0216,2.4917 0.7424,3.3872 1.7843,2.2195 -0.3802,2.9603 0.1213,4.796 0.5568,-0.9037 1.849,-1.6897 2.3689,-2.9254 0.3956,-0.9453 -0.392,-2.3207 -0.01,-3.2907 0.3206,-0.8076 0.6177,-0.4937 0.6809,0.126 0.173,1.6712 1.3973,3.3507 -0.1409,4.7744 2.8206,5.4419 7.5201,10.8724 13.0369,13.919 2.9054,1.6046 8.0467,3.3355 13.2394,8.5553 1.703,1.7093 3.432,3.8055 5.3658,5.1593 1.0398,0.1346 2.427,1.4005 3.8008,1.6297 0.6612,0.113 0.8672,0.5631 0.0483,0.7891 -1.1729,0.3206 -2.2642,-0.7126 -3.4038,-0.7875 -0.5568,-0.0346 -0.2111,0.4983 -0.0149,0.6133 1.2177,0.6993 1.8871,1.9632 3.5847,2.5283 0.9335,1.309 3.5316,1.6559 3.957,3.3703 0.4136,1.6713 1.9769,3.8291 3.7624,3.8342 0.0318,-3.2542 -0.5313,-6.4472 -1.4551,-9.2976 -0.5018,-1.5418 0.5698,-0.821 1.045,-0.128 1.0615,1.5516 1.377,3.9735 1.6148,5.8241 0.9767,7.575 0.6278,14.2463 4.0115,21.3281 3.2841,6.8707 8.7845,10.261 14.0352,15.4871 3.3543,3.3406 3.8507,8.4273 3.0585,13.0255 -0.8057,4.6846 -2.7312,8.0683 -4.2212,12.55 -1.063,3.2012 -3.1015,5.4572 -6.2577,7.4388 -3.138,1.9703 -5.9269,2.3043 -5.1597,7.0335 1.4287,0.2677 2.3572,1.0332 3.1765,1.995 2.2324,-2.1311 5.3073,-2.254 8.1397,-1.8404 0.7095,-0.7377 0.1546,-2.0931 0.412,-3.0482 0.221,-0.8174 1.1827,-1.1564 1.9785,-1.4287 0.8936,-0.3041 1.8204,-0.9336 1.3174,-1.922 -0.3273,-0.6412 -1.2094,-2.4734 0.9849,-0.9567 0.3257,0.2256 0.4736,0.6993 0.5297,1.1627 0.1115,0.8853 0.4187,1.0995 1.3209,0.844 0.465,-0.1314 0.9304,-0.4006 1.3903,-0.4669 0.5815,-0.0879 0.7593,-1.2275 0.6031,-1.8706 -0.505,-2.1194 -0.3853,-4.1128 0.3108,-6.1514 1.641,-4.8223 2.9815,-9.5782 4.0881,-14.8078 0.7459,-3.525 2.46,-6.7792 4.8042,-9.6615 0.9383,-1.1595 1.1345,-1.9667 0.7358,-3.2958 -0.3371,-1.1164 -0.5996,-2.3089 -0.6561,-3.4802 -0.0699,-1.4684 -1.0748,-2.7277 -2.3655,-3.2127 -5.859,-2.2025 -9.798,-6.6677 -6.9404,-14.5088 -0.9006,-1.1576 -1.7725,-2.7394 -1.1879,-4.1364 0.1876,-0.4469 0.5102,-0.5713 0.5298,0.005 0.0898,2.3788 2.1696,3.5666 3.7742,5.1131 0.6631,0.6396 1.4785,1.2757 1.2741,2.2657 -0.1593,0.7758 0.04,0.9571 0.5317,0.2794 1.6779,-2.3093 -2.0766,-4.9655 -2.5616,-7.4804 -0.485,-2.5267 -0.1013,-5.4454 -0.9053,-7.6613 -0.1546,-0.4238 -0.0746,-0.7146 0.3838,-0.3854 1.1062,0.7954 1.1627,2.4086 1.2725,3.7675 0.1013,1.2608 1.6627,2.5565 2.9388,2.1394 0.8601,-0.2806 0.558,-0.3951 -0.0832,-0.6592 -1.4884,-0.6165 -1.2577,-2.0818 -1.1313,-3.3492 0.3869,-3.8903 2.5216,-6.6862 1.716,-10.7677 -0.5066,-0.5199 -0.9438,-1.8274 -0.7075,-2.6813 0.186,-0.6761 0.5113,-0.6376 0.6427,-0.0482 0.1511,0.6879 0.4619,1.3024 1.3091,1.5417 3.7459,1.0599 4.9404,4.8937 4.3008,8.3324 -0.8374,4.4938 -1.922,6.7462 1.4966,10.3791 1.1529,1.2259 3.525,4.0999 3.6929,6.6466 0.1111,1.6878 -0.1079,3.2527 -2.0899,3.9319 -1.0646,0.3638 -0.7723,0.6314 0.2825,0.7276 1.4335,0.1298 2.9917,-1.0497 3.4916,-2.46 0.4321,-1.2094 0.5698,-2.7394 0.374,-4.1215 -0.0498,-0.3606 0.1562,-0.7593 0.5015,-0.3806 0.9751,1.0599 0.7342,3.8691 0.0734,5.8857 -0.1016,2.912 1.3652,5.2096 4.6013,4.5134 1.0431,-0.224 1.0799,-0.445 0.2092,-0.538 -2.3752,-0.2558 -2.3953,-2.5981 -2.088,-4.5005 0.392,-2.445 1.2926,-5.5549 -0.1958,-7.779 -2.1064,-0.7511 -2.0001,-2.9686 -2.6546,-4.7344 -0.2276,-0.618 -0.0781,-0.8425 0.6643,-0.3041 0.6793,0.4885 1.1863,3.2259 2.781,4.01 0.91,0.4485 1.9585,0.5517 2.9733,-0.1295 0.9103,-0.6114 0.04,-0.5615 -0.5066,-0.6381 z M 440.3217,78.1464 c 0.2621,-1.6198 2.4152,-2.095 3.7325,-2.6962 1.9334,-0.8786 3.4619,-2.3489 5.0648,-3.7993 2.5417,-2.3006 6.0933,-7.7841 6.5238,-7.7892 0.1095,0.4387 -0.4387,0.879 -0.2743,1.3738 -1.1662,3.0635 -3.5317,5.5769 -5.4619,8.5321 -1.4704,2.2508 -4.0999,3.3739 -6.4504,3.7757 -1.1395,0.1962 -1.2941,0.4634 -1.9553,1.5331 -0.6926,1.1215 -1.3091,-0.1259 -1.1792,-0.93 z m -8.582,-0.6545 c -0.7989,0.3453 -1.5865,0.0114 -2.3819,0.1542 -0.4983,3.0851 -2.4819,5.208 -4.8905,5.9524 -3.1597,0.9748 -6.9539,-0.62 -7.4342,-4.0567 -1.1442,0.0248 -2.4152,0.5996 -3.5065,0.1444 -0.8009,-0.3339 -0.3673,-0.6427 0.1562,-0.6725 0.5713,-0.0334 1.0116,-0.0518 1.5515,-0.2692 0.5981,-0.2445 1.2075,-1.0034 1.4833,-1.251 1.3621,-1.2275 2.4153,-2.761 4.1313,-3.505 1.2212,-0.5301 2.5883,-0.8837 3.939,-0.4936 0.4799,0.1381 0.503,0.7212 0.0133,0.6863 -1.1513,-0.0848 -2.1115,0.1609 -2.8292,0.503 -1.8789,0.899 -1.9899,2.2693 -3.2594,3.0518 1.55,-0.2672 3.0785,-1.4437 4.924,-1.623 1.8372,-0.1778 3.4884,0.0318 5.1079,0.3488 -0.186,-0.5815 -1.3322,-1.5464 -1.847,-1.7956 -0.5749,-0.279 -0.0699,-0.5333 0.3735,-0.4336 0.7562,0.1695 1.4107,0.784 2.0633,1.2906 0.6828,0.5282 1.3224,0.8174 2.1531,0.6114 0.6742,-0.166 0.8653,-0.5317 1.0682,-1.0862 0.2589,-0.7079 0.6725,-0.4038 0.6776,0.2904 0.007,0.9221 -0.6596,1.7941 -1.4935,2.1531 z m 46.3122,161.4442 c 0.7429,0.5298 1.6929,1.0117 2.5915,1.3538 0.6961,0.2626 1.3409,1.0615 1.3075,1.8836 -0.0334,0.7691 0,1.5516 0.186,2.2811 0.2492,0.9818 0.1181,1.7442 -0.5168,2.4101 -0.8021,0.8425 -1.1227,1.9322 -1.455,2.9819 -0.1876,0.6031 -0.4254,0.6597 -0.6032,-0.0714 -0.3119,-1.2808 0.3858,-2.3521 0.9771,-3.3225 0.2971,-0.4882 0.5015,-0.9516 0.3104,-1.7125 -0.1362,-0.5384 -0.1628,-1.065 -0.1542,-1.5998 0.018,-0.9037 -0.3273,-1.284 -0.9253,-1.6312 -0.8656,-0.5 -1.7493,-1.2043 -2.2297,-2.0649 -0.4665,-0.8405 -0.1758,-0.9967 0.5117,-0.5082 z"
           style="fill:#ffffff;fill-rule:evenodd"
           id="path95" />
        <path
           d="m 428.1202,77.6183 c -0.2975,2.6193 -1.9436,4.6743 -4.4621,5.2076 -2.7394,0.5796 -5.0498,-0.5816 -5.6581,-3.5815 0.4136,-0.153 1.0101,-0.3124 1.5084,-0.4454 0.3689,2.1084 2.2477,3.1499 4.1313,2.6397 1.6214,-0.4402 2.7861,-1.5382 2.8673,-3.7726 0.5168,-0.02 1.0866,-0.0663 1.6132,-0.0478 z"
           style="fill:#ffffff;fill-rule:evenodd"
           id="path97" />
        <path
           d="m 422.1117,78.2461 c -0.148,0.7954 0.1542,1.4186 0.6094,1.9087 -1.2526,0.2774 -1.8655,-0.9571 -1.8903,-1.6564 0.3587,-0.0647 0.9238,-0.1977 1.2809,-0.2523 z"
           style="fill:#ffffff;fill-rule:evenodd"
           id="path99" />
        <path
           d="m 404.0994,95.8263 c 0.3489,0.7012 0.6526,1.7011 1.0862,2.4518 1.4653,2.5369 -1.103,3.8177 -1.0049,4.6465 -0.6895,-0.445 0.0215,-1.2609 -0.2739,-1.7294 -0.2924,-0.4599 -0.4136,-0.2127 -0.3771,0.0534 0.2024,1.5182 -2.2179,3.0898 -3.0302,4.1528 -1.2706,1.6595 -0.6063,3.5317 0.1793,5.2445 0.6345,1.3852 0.912,4.2494 -1.1113,4.5433 1.7078,-3.0749 -1.3985,-3.8738 -1.8306,-6.6481 -0.2939,-1.9071 0.073,-3.0734 1.7243,-4.9153 0.3724,-0.4156 0.472,-0.6349 -0.4599,-0.412 -1.2593,0.3005 -2.4635,2.2739 -2.6166,3.5363 -0.1793,1.4688 0.2959,3.0965 1.0152,4.2894 0.0396,1.045 -1.0101,2.1096 -1.8408,2.0299 -0.9284,-0.0863 -0.651,-0.2609 -0.2492,-0.6345 0.3622,-0.339 0.7326,-0.5882 0.6895,-1.1462 -0.3006,-1.7858 -1.6913,-3.7675 -0.6047,-5.52 0.2209,-1.1164 0.7573,-2.1516 1.6461,-2.912 0.3041,-0.2578 0.3704,-0.5051 -0.2456,-0.447 -0.9336,0.0863 -1.5983,1.2259 -1.977,1.9252 -0.8287,-1.4088 0.4321,-2.4585 0.7142,-3.5101 0.5019,-1.8738 3.0353,-1.9817 2.8257,-4.0916 0.8457,-0.425 2.1465,0.3107 2.5832,0.7958 0.6212,0.691 0.3658,1.7262 -0.0961,2.3874 -0.3308,0.4716 0.0283,0.6525 0.4917,0.4151 1.8388,-0.9402 1.3769,-2.5565 0.9217,-3.5983 0.8308,-0.1543 0.9269,-1.1329 1.8408,-0.9069 z"
           style="fill:#ffffff;fill-rule:evenodd"
           id="path101" />
        <path
           d="m 377.8211,112.5464 c 0.9866,0.1973 2.088,0.7589 2.3254,1.794 0.3289,1.4484 1.0764,2.681 2.1712,3.7758 4.5767,4.5731 11.3327,7.4836 14.4775,13.3559 -0.6628,0.8971 -0.8723,1.9401 -0.8641,2.9619 0.0133,1.3985 -0.5549,2.3438 -0.5298,3.264 -4.01,-2.1209 -8.9174,-3.5297 -12.6382,-4.9553 -1.2427,-2.4352 -3.9884,-4.1893 -4.608,-6.8121 0.3088,-0.1696 0.5497,0.0961 0.7805,0.3005 0.6298,0.5549 0.7059,-0.2044 0.4454,-0.6843 -0.8339,-1.5269 -2.7343,-1.8757 -4.0603,-2.7261 -1.7505,-1.1199 -3.0796,-2.7162 -4.2839,-4.3922 -0.452,-0.6278 -1.1215,-1.0116 -1.8572,-0.9669 -0.6648,0.0432 -1.3158,-0.151 -1.9056,-0.3519 -0.2758,-0.0934 -0.6129,0.1542 -0.0812,0.6992 0.6726,0.691 2.3953,0.2708 2.7724,1.7176 -1.0215,0.0165 -2.5915,-0.5631 -4.9538,-0.7542 -3.1278,-0.2523 -7.1065,0.2892 -10.2194,0.4336 -1.4088,0.0663 -2.967,0.3123 -4.1348,1.1843 -0.9002,0.6729 -1.8357,1.4986 -2.872,1.869 -0.8806,0.3171 -2.2611,-0.5301 -0.9602,-1.0548 0.2389,-0.0981 0.4716,-0.4089 0.6859,-0.5831 0.3339,-0.2708 0.7942,-0.7809 0.7095,-1.2459 -0.1813,-1.0049 -0.5781,-0.97 -0.8539,-0.6165 -0.4285,0.5451 -0.8621,0.5749 -1.3189,0.3838 -0.3422,-0.1444 -0.8723,-0.6561 -1.3059,-0.4101 -1.0332,0.5914 -1.9354,1.0246 -2.3341,0.4352 -0.7024,-1.3357 -1.8505,-3.1047 -3.2789,-3.512 0.6161,-0.5929 0.9202,-1.4037 0.9685,-2.0448 2.5031,-2.7744 5.4454,-0.706 8.8789,0.3221 2.4369,0.7295 4.1281,0.8292 6.6266,0.354 4.774,-0.9069 9.736,-2.4235 14.3342,-2.4667 0.0765,1.1278 0.8025,2.2575 1.7592,2.9003 0.9005,0.6078 2.1429,0.4285 1.1081,-0.4768 -0.8107,-0.7095 -1.3969,-1.7293 -1.3522,-2.8391 1.0383,-1.3157 2.7009,-0.7608 3.7859,0.0267 0.8088,0.5882 1.6379,0.9269 2.5832,1.1149 z"
           style="fill:#ffffff;fill-rule:evenodd"
           id="path103" />
        <path
           d="m 453.7208,234.4792 c -3.5485,-5.4572 -5.0832,-13.2449 -5.2728,-19.6356 -2.6063,-0.0777 -4.0849,-1.8039 -4.4569,-3.8456 -0.2076,-1.1345 -0.4701,-1.5382 -1.4253,-2.2407 -0.6678,-0.4885 -1.6065,-0.5697 -2.1727,-1.2894 -0.7326,4.5766 -4.1132,7.3078 -6.9338,10.7233 -3.5003,4.2392 -4.9055,8.2943 -4.4821,13.9391 0.3041,4.0433 1.2726,6.8953 3.1612,10.4635 1.3923,2.6299 1.7761,5.2759 1.3558,8.2095 -0.3324,2.3011 -1.065,4.4723 -2.3293,6.3758 -2.5515,3.8389 -5.8571,7.6398 -8.4737,11.5717 -1.608,2.7594 -4.1861,4.2992 -6.8474,5.5686 -1.2157,0.5796 -8.6448,3.1895 -7.2262,7.0814 1.0053,0.2425 1.7093,1.3522 1.8176,2.4671 0.0632,0.6376 0.1758,0.6961 0.8688,0.2209 1.8887,-1.2993 4.2992,-1.4221 6.5814,-0.9767 1.6548,-0.4803 0.2708,-2.6931 3.3755,-3.5984 0.6977,-0.2044 0.5682,-0.9783 -0.0812,-1.0132 -0.9469,-0.0498 -0.6412,-0.9751 0.5215,-1.1811 1.0116,-0.1813 2.1877,0.651 1.8023,1.7792 -0.3555,1.0363 0.2728,2.0566 1.2028,1.1662 0.2876,-0.2743 0.7177,-0.487 0.992,-0.5549 0.5646,-0.1397 0.7475,-0.5933 0.7922,-1.8423 0.0679,-1.9405 0.9304,-3.7891 2.4286,-5.1582 4.231,-3.8672 8.7994,-8.0883 12.6999,-12.869 0.5662,-0.6945 1.2572,-1.2757 1.8871,-1.9086 -0.5832,-0.0452 -0.5518,-0.5349 -0.1229,-1.0666 0.3253,-0.4038 0.8304,-0.784 1.1926,-1.1031 0.6596,-0.578 1.6928,-0.8173 2.5333,-1.0018 1.364,-0.299 2.0233,-0.6792 2.3772,-1.8937 0.3606,-1.2424 0.857,-2.6378 1.5567,-3.6164 0.6926,-0.9701 0.3787,-2.5731 -0.3108,-3.5666 -3.3441,-4.8058 -0.9633,-8.1299 2.9886,-11.2044 z m -4.7713,14.477 c -0.5415,0.7378 -0.7589,1.6164 -1.0332,2.5366 -0.3057,1.0202 -1.9067,1.4154 -2.9269,1.4452 -0.8904,0.0282 -1.4602,1.0218 -2.1728,1.5598 -0.2657,0.2029 -0.9104,0.5435 -0.6844,-0.3288 0.3756,-1.4504 1.2989,-2.8155 2.7543,-3.0749 1.7926,-0.3187 1.4021,-1.1776 2.0398,-1.8902 0.7408,-0.8257 1.143,-1.472 0.3939,-3.0899 -0.4336,-0.937 -0.9339,-1.7144 -0.6545,-2.9089 0.1793,-0.7706 0.6659,-0.97 0.7789,-0.0133 0.128,1.0583 0.7527,1.8988 1.3291,2.7692 0.5847,0.8872 0.9336,1.9636 0.1758,2.9952 z"
           style="fill:#ffffff;fill-rule:evenodd"
           id="path105" />
      </g>
    </g>
    <g
       id="Layer1010">
      <g
         id="Layer1011">
        <g
           id="Layer1012" />
      </g>
      <g
         id="g1144">
        <path
           d="m 447.0212,64.9066 c -0.2809,0.2178 -0.7228,0.4486 -1.1548,0.5518 -1.8655,0.0165 -4.8254,0.0278 -6.975,1.8902 -1.9538,-0.2327 -3.1762,-2.2956 -5.6566,-2.4985 2.0864,-2.4435 4.7827,-3.9899 7.9639,-3.6246 2.3105,0.2656 4.475,1.676 5.8225,3.6811 z"
           style="fill:#ffd400;fill-rule:evenodd"
           id="path108" />
        <path
           d="m 455.3136,60.8135 c -1.3005,0.4536 -2.3721,2.2426 -3.3504,3.4319 -0.879,-0.2374 -1.9769,-0.2374 -2.8555,0 -2.2944,-2.3206 -3.5866,-3.565 -6.8377,-4.5566 3.4787,-1.9683 10.042,-1.8753 13.0436,1.1247 z"
           style="fill:#ffd400;fill-rule:evenodd"
           id="path110" />
        <path
           d="m 465.9953,67.2674 c -1.7294,-0.9654 -3.7495,-1.3107 -5.7943,-1.3739 -0.1613,-1.8074 -1.098,-3.2977 -2.2509,-4.4738 0.0314,-0.6294 -0.4022,-1.3604 -0.8856,-1.6877 3.3955,-0.2672 8.6168,4.123 8.9308,7.5354 z"
           style="fill:#ffd400;fill-rule:evenodd"
           id="path112" />
        <path
           d="m 458.5811,65.2889 c -0.2523,-0.1017 -0.6859,-0.2394 -0.9618,-0.3206 0.0334,-0.6098 0.0668,-1.417 0.0997,-2.0284 0.4568,0.5282 1.1313,1.7093 0.8621,2.349 z"
           style="fill:#ffd400;fill-rule:evenodd"
           id="path114" />
        <path
           d="m 450.2339,65.9481 c -0.3308,0.359 -0.5863,0.6514 -1.1996,0.9253 -0.2441,-0.1825 -0.4882,-0.3469 -0.7872,-0.4948 0.4948,-0.3289 1.2443,-0.5117 1.9868,-0.4305 z"
           style="fill:#ffd400;fill-rule:evenodd"
           id="path116" />
        <path
           d="m 463.1695,77.6214 c -2.912,-0.9618 -6.0152,-1.2643 -8.5152,-3.2958 0.7024,-2.7394 2.5365,-4.796 2.6809,-7.7646 5.7778,1.2396 4.552,7.5801 5.8343,11.0604 z"
           style="fill:#ffd400;fill-rule:evenodd"
           id="path118" />
        <path
           d="m 447.6789,67.8721 c -2.0699,1.7658 -4.7046,2.2324 -6.9189,3.5697 -0.9916,-0.0365 -1.4535,-1.5932 -1.2824,-2.4435 2.0684,-1.8224 5.5949,-3.022 8.2013,-1.1262 z"
           style="fill:#ffd400;fill-rule:evenodd"
           id="path120" />
        <path
           d="m 469.8126,73.6659 c 1.2161,3.2743 1.2624,7.4687 0.2759,10.8744 -0.8241,-2.9203 -4.0866,-3.9539 -5.1633,-7.4969 -0.7923,-2.6032 -0.4384,-7.0386 -3.2955,-9.3095 3.8107,0.1197 6.977,2.6829 8.1829,5.932 z"
           style="fill:#ffd400;fill-rule:evenodd"
           id="path122" />
        <path
           d="m 477.2612,86.2744 c -0.0247,2.3724 -1.362,7.1182 -2.8339,8.7561 -0.6761,-3.0816 -2.3191,-4.8788 -2.4102,-8.766 -0.0949,-4.0665 1.8871,-6.8506 0.4332,-10.8143 2.9223,2.4671 4.851,7.1034 4.8109,10.8242 z"
           style="fill:#ffd400;fill-rule:evenodd"
           id="path124" />
        <path
           d="m 468.8276,85.4271 c -0.8558,2.9772 -5.1613,3.9739 -7.3077,6.5552 1.0697,-4.0367 -0.538,-8.9155 1.7976,-12.909 1.2259,4.1246 4.3639,3.8275 5.5101,6.3538 z"
           style="fill:#ffd400;fill-rule:evenodd"
           id="path126" />
        <path
           d="m 467.178,98.3263 c -2.3639,2.7842 -5.4105,3.5152 -7.7728,6.0403 -0.5482,-4.4754 0.578,-8.5152 3.7643,-11.4508 2.0982,-1.9353 4.9153,-3.3503 6.7808,-5.6561 0.9253,2.4466 -1.136,9.138 -2.7723,11.0666 z"
           style="fill:#ffd400;fill-rule:evenodd"
           id="path128" />
        <path
           d="m 475.798,109.9149 c -1.0882,-3.3374 -1.3374,-7.2858 -0.6448,-10.8143 0.7425,-3.7942 3.0549,-6.8028 4.0799,-10.5236 1.4205,3.2126 2.0381,7.4902 1.4837,11.3194 -0.6181,4.2458 -2.9772,6.4103 -4.9188,10.0185 z"
           style="fill:#ffd400;fill-rule:evenodd"
           id="path130" />
        <path
           d="m 463.2225,110.7107 c -1.9267,1.9287 -4.5032,2.6927 -6.5351,4.5315 -0.5863,-2.8587 1.497,-7.0649 3.3425,-8.8492 2.2277,-2.1527 4.4252,-3.3539 6.9554,-4.9635 -0.3288,3.4587 -1.2608,6.7776 -3.7628,9.2812 z"
           style="fill:#ffd400;fill-rule:evenodd"
           id="path132" />
        <path
           d="m 481.4706,115.0844 c -1.2424,3.4187 -4.0881,5.4486 -5.726,8.5353 -0.8755,-4.0167 -0.5199,-8.3477 1.0434,-11.9508 1.3389,-3.0913 4.0131,-5.3041 5.2724,-8.7294 1.3259,1.6547 0.6514,8.7314 -0.5898,12.1449 z"
           style="fill:#ffd400;fill-rule:evenodd"
           id="path134" />
        <path
           d="m 455.1774,127.3821 c -0.6063,-3.0514 -0.2009,-6.7475 1.7293,-9.2844 1.8275,-2.4019 4.4354,-3.2008 6.452,-5.2158 -0.1927,3.2193 -1.0065,6.4154 -2.814,9.0983 -1.4884,2.2077 -3.6129,3.4618 -5.3673,5.4019 z"
           style="fill:#ffd400;fill-rule:evenodd"
           id="path136" />
        <path
           d="m 481.4859,128.1316 c -0.9104,2.8288 -3.3523,4.927 -4.0387,6.7725 -1.3239,-2.5 -1.6029,-5.9053 -0.6129,-8.6832 0.972,-2.7209 3.3955,-5.2045 4.9789,-7.6013 1.1375,1.8789 0.6843,6.3621 -0.3273,9.512 z"
           style="fill:#ffd400;fill-rule:evenodd"
           id="path138" />
        <path
           d="m 456.0281,137.6517 c -1.2494,-2.2112 -1.3922,-5.3226 -0.173,-7.6264 1.105,-2.0899 2.8873,-3.3908 4.4024,-5.0883 0.671,2.688 0.1212,5.6844 -1.2345,7.8689 -1.0148,1.6363 -2.3588,3.0569 -2.9949,4.8458 z"
           style="fill:#ffd400;fill-rule:evenodd"
           id="path140" />
        <path
           d="m 480.1651,143.9126 c -1.2342,-1.7855 -1.7623,-4.2211 -1.2624,-6.5913 0.4618,-2.1845 2.3905,-3.8424 3.1577,-5.9869 0.6314,2.1892 0.8754,4.7308 0.2425,7.4353 -0.4419,1.8922 -1.4931,3.3873 -2.1378,5.1429 z"
           style="fill:#ffd400;fill-rule:evenodd"
           id="path142" />
        <path
           d="m 459.94,140.4673 c -0.186,1.9455 0.314,3.8275 0.7578,5.6349 0.2739,1.1144 0.1711,1.4786 -0.7691,0.392 -1.8675,-2.1563 -3.0883,-4.6531 -2.7312,-7.5781 0.1911,-1.5649 2.201,-2.6912 2.7857,-4.2314 0.6498,1.6615 0.1264,4.0085 -0.0432,5.7826 z"
           style="fill:#ffd400;fill-rule:evenodd"
           id="path144" />
        <path
           d="m 485.7816,152.8681 c 0.6576,1.1713 0.3472,1.1996 -0.6546,0.3622 -1.9035,-1.5897 -3.6894,-4.2109 -3.6662,-6.8805 0.0118,-1.4837 1.1431,-2.52 1.3404,-3.9472 1.0203,1.6897 1.4704,3.1165 1.7545,5.0719 0.2374,1.6163 0.4085,3.935 1.2259,5.3936 z"
           style="fill:#ffd400;fill-rule:evenodd"
           id="path146" />
        <path
           d="m 338.5672,113.5297 c -0.3191,0.425 -0.3124,1.3373 -1.9122,1.7227 -1.4186,0.3386 -3.5647,0.4901 -4.9667,-0.0349 -0.8292,-1.1714 -1.698,-4.0218 0.2672,-2.9074 1.8608,1.0552 6.0768,0.4336 6.6117,1.2196 z"
           style="fill:#ffd400;fill-rule:evenodd"
           id="path148" />
        <path
           d="m 340.9726,119.862 c -1.0532,1.2027 -4.7446,2.11 -6.346,1.962 -2.367,-0.2229 -4.0265,-1.6363 -5,-3.7875 -0.8005,-1.7693 0.093,-1.6712 1.2541,-1.417 1.8157,0.4019 3.8342,0.1809 5.6365,-0.0349 0.8441,-0.1012 1.6281,-0.0432 2.3788,0.4419 0.8888,0.5748 1.869,1.8921 2.0766,2.8355 z"
           style="fill:#ffd400;fill-rule:evenodd"
           id="path150" />
        <path
           d="m 330.3992,143.5272 c -1.2176,0.7892 -2.932,1.2628 -4.5535,1.045 -0.9268,-1.3338 -1.8341,-3.3723 0.6844,-2.9568 1.5316,0.2523 3.919,0.3155 5.2429,-0.4603 0.1095,0.8786 -0.6066,1.8773 -1.3738,2.3721 z"
           style="fill:#ffd400;fill-rule:evenodd"
           id="path152" />
        <path
           d="m 336.1633,146.2501 c -0.8237,1.2722 -2.9337,2.7724 -5.0982,3.0216 -1.8804,0.2158 -3.8887,-0.0499 -5.2574,-1.1859 -1.1329,-0.9421 -1.8855,-2.1665 0.0863,-2.1845 2.0515,-0.0216 3.0482,-0.5415 4.8674,-1.3538 0.9932,-0.4422 2.0911,-0.4521 3.264,0.0447 0.7943,0.3371 1.6164,1.0168 2.1379,1.6579 z"
           style="fill:#ffd400;fill-rule:evenodd"
           id="path154" />
        <path
           d="m 408.7506,286.7069 c -0.6977,1.3354 -1.53,2.2607 -2.6762,3.1228 -0.9269,0.6961 -2.2308,0.6314 -3.4304,-0.0447 -1.3338,-0.7527 -0.4964,-1.4072 0.6031,-1.8655 1.9369,-0.8076 3.8173,-3.1365 4.5052,-5.1963 1.4484,0.4952 1.5018,3.0235 0.9983,3.9837 z"
           style="fill:#ffd400;fill-rule:evenodd"
           id="path158" />
        <path
           d="m 417.555,284.7614 c 0.5282,2.2991 -2.201,6.643 -4.0618,7.635 -1.6245,0.8688 -4.4055,1.4119 -6.2624,0.6561 -1.1415,-0.4654 -1.198,-1.2011 -0.1828,-2.0001 1.3636,-1.0748 2.0848,-2.0283 2.872,-3.5932 0.5415,-1.0748 1.3624,-1.6113 2.4521,-2.068 1.5614,-0.6561 3.3422,-0.8672 5.1829,-0.6298 z"
           style="fill:#ffd400;fill-rule:evenodd"
           id="path160" />
        <path
           d="m 465.9454,288.0109 c -0.1597,2.5679 -0.7758,5.8374 -2.6746,7.6048 -1.8922,1.7592 -4.8258,2.6629 -7.3325,2.3407 -1.3205,-0.173 -1.7192,-0.5317 -0.5282,-1.7226 1.2043,-1.2063 2.1912,-2.688 2.6444,-4.7513 0.2276,-1.0199 0.5867,-1.8255 1.6815,-2.4368 1.7956,-1.0101 4.1775,-1.5665 6.2094,-1.0348 z"
           style="fill:#ffd400;fill-rule:evenodd"
           id="path162" />
        <path
           d="m 456.6426,290.549 c -0.3072,2.1382 -1.6445,4.1681 -3.3605,5.5533 -1.975,0.2676 -5.6962,-0.9135 -2.6099,-2.726 1.8274,-1.0713 3.4072,-2.7292 4.2576,-5.5134 1.6316,0.3489 1.9189,1.2526 1.7128,2.6861 z"
           style="fill:#ffd400;fill-rule:evenodd"
           id="path164" />
      </g>
    </g>
  </g>
</svg>
